<?xml version="1.0" encoding="UTF-8"?>
<svg xmlns="http://www.w3.org/2000/svg" xmlns:xlink="http://www.w3.org/1999/xlink" width="375pt" height="374.999991pt" viewBox="0 0 375 374.999991" version="1.2">
<defs>
<clipPath id="clip1">
  <path d="M 0 4.089844 L 375 4.089844 L 375 370 L 0 370 Z M 0 4.089844 "/>
</clipPath>
</defs>
<g id="surface1">
<g clip-path="url(#clip1)" clip-rule="nonzero">
<path style=" stroke:none;fill-rule:nonzero;fill:rgb(100%,100%,100%);fill-opacity:1;" d="M 187.550781 4.085938 C 84.117188 4.085938 0.257812 87.902344 0.257812 191.347656 C 0.257812 274.03125 53.902344 344.203125 128.34375 368.984375 C 137.71875 370.6875 141.132812 364.890625 141.132812 359.945312 C 141.132812 355.503906 140.988281 343.726562 140.875 328.09375 C 88.78125 339.410156 77.796875 303.003906 77.796875 303.003906 C 69.273438 281.378906 56.992188 275.636719 56.992188 275.636719 C 39.992188 264 58.292969 264.238281 58.292969 264.238281 C 77.101562 265.566406 86.988281 283.53125 86.988281 283.53125 C 103.679688 312.15625 130.816406 303.855469 141.5 299.078125 C 143.183594 286.96875 148.019531 278.753906 153.371094 274.058594 C 111.777344 269.351562 68.058594 253.246094 68.058594 181.511719 C 68.058594 161.101562 75.367188 144.367188 87.324219 131.292969 C 85.40625 126.542969 78.988281 107.515625 89.175781 81.726562 C 89.175781 81.726562 104.878906 76.699219 140.675781 100.9375 C 155.613281 96.773438 171.65625 94.691406 187.5625 94.621094 C 203.472656 94.691406 219.5 96.773438 234.441406 100.9375 C 270.21875 76.699219 285.925781 81.726562 285.925781 81.726562 C 296.128906 107.515625 289.707031 126.542969 287.773438 131.292969 C 299.753906 144.367188 307.027344 161.101562 307.027344 181.511719 C 307.027344 253.457031 263.21875 269.28125 221.5 273.921875 C 228.214844 279.703125 234.222656 291.101562 234.222656 308.578125 C 234.222656 333.613281 233.992188 353.796875 233.992188 359.945312 C 233.992188 364.945312 237.378906 370.757812 246.875 368.925781 C 321.222656 344.144531 374.84375 274.003906 374.84375 191.347656 C 374.84375 87.902344 291.011719 4.085938 187.550781 4.085938 "/>
</g>
</g>
</svg>
