<?xml version="1.0" encoding="UTF-8"?>
<svg xmlns="http://www.w3.org/2000/svg" xmlns:xlink="http://www.w3.org/1999/xlink" width="375pt" height="374.999991pt" viewBox="0 0 375 374.999991" version="1.2">
<defs>
<clipPath id="clip1">
  <path d="M 12.1875 62 L 351 62 L 351 350 L 12.1875 350 Z M 12.1875 62 "/>
</clipPath>
</defs>
<g id="surface1">
<g clip-path="url(#clip1)" clip-rule="nonzero">
<path style=" stroke:none;fill-rule:nonzero;fill:rgb(100%,100%,100%);fill-opacity:1;" d="M 43.609375 350 L 318.753906 350 C 335.996094 350 350.019531 335.984375 350.019531 318.75 L 350.019531 93.75 C 350.019531 76.511719 335.996094 62.5 318.753906 62.5 L 312.5 62.5 L 312.5 75 L 318.753906 75 C 329.109375 75 337.511719 83.398438 337.511719 93.75 L 337.511719 318.75 C 337.511719 329.101562 329.109375 337.5 318.753906 337.5 L 43.609375 337.5 C 33.253906 337.5 24.851562 329.101562 24.851562 318.75 L 24.851562 93.75 C 24.851562 83.398438 33.253906 75 43.609375 75 L 224.953125 75 L 224.953125 62.5 L 43.609375 62.5 C 26.363281 62.5 12.34375 76.511719 12.34375 93.75 L 12.34375 318.75 C 12.34375 335.984375 26.363281 350 43.609375 350 "/>
</g>
<path style=" stroke:none;fill-rule:nonzero;fill:rgb(100%,100%,100%);fill-opacity:1;" d="M 37.355469 87.5 L 37.355469 100 L 49.863281 100 L 49.863281 87.5 L 37.355469 87.5 "/>
<path style=" stroke:none;fill-rule:nonzero;fill:rgb(100%,100%,100%);fill-opacity:1;" d="M 62.371094 87.5 L 62.371094 100 L 74.875 100 L 74.875 87.5 L 62.371094 87.5 "/>
<path style=" stroke:none;fill-rule:nonzero;fill:rgb(100%,100%,100%);fill-opacity:1;" d="M 87.382812 87.5 L 87.382812 100 L 99.890625 100 L 99.890625 87.5 L 87.382812 87.5 "/>
<path style=" stroke:none;fill-rule:nonzero;fill:rgb(100%,100%,100%);fill-opacity:1;" d="M 325.003906 112.5 L 312.5 112.5 L 312.5 125 L 325.003906 125 L 325.003906 112.5 "/>
<path style=" stroke:none;fill-rule:nonzero;fill:rgb(100%,100%,100%);fill-opacity:1;" d="M 224.953125 112.5 L 37.355469 112.5 L 37.355469 125 L 224.953125 125 L 224.953125 112.5 "/>
<path style=" stroke:none;fill-rule:nonzero;fill:rgb(100%,100%,100%);fill-opacity:1;" d="M 124.902344 218.75 L 49.863281 218.75 L 49.863281 156.25 L 124.902344 156.25 Z M 43.609375 143.75 C 40.164062 143.75 37.355469 146.558594 37.355469 150 L 37.355469 225 C 37.355469 228.441406 40.164062 231.25 43.609375 231.25 L 131.15625 231.25 C 134.597656 231.25 137.410156 228.441406 137.410156 225 L 137.410156 150 C 137.410156 146.558594 134.597656 143.75 131.15625 143.75 L 43.609375 143.75 "/>
<path style=" stroke:none;fill-rule:nonzero;fill:rgb(100%,100%,100%);fill-opacity:1;" d="M 199.941406 143.75 L 156.167969 143.75 L 156.167969 156.25 L 199.941406 156.25 L 199.941406 143.75 "/>
<path style=" stroke:none;fill-rule:nonzero;fill:rgb(100%,100%,100%);fill-opacity:1;" d="M 224.953125 143.75 L 212.445312 143.75 L 212.445312 156.25 L 224.953125 156.25 L 224.953125 143.75 "/>
<path style=" stroke:none;fill-rule:nonzero;fill:rgb(100%,100%,100%);fill-opacity:1;" d="M 156.167969 187.5 L 181.179688 187.5 L 181.179688 175 L 156.167969 175 L 156.167969 187.5 "/>
<path style=" stroke:none;fill-rule:nonzero;fill:rgb(100%,100%,100%);fill-opacity:1;" d="M 224.953125 175 L 193.6875 175 L 193.6875 187.5 L 224.953125 187.5 L 224.953125 175 "/>
<path style=" stroke:none;fill-rule:nonzero;fill:rgb(100%,100%,100%);fill-opacity:1;" d="M 224.953125 206.25 L 156.167969 206.25 L 156.167969 218.75 L 224.953125 218.75 L 224.953125 206.25 "/>
<path style=" stroke:none;fill-rule:nonzero;fill:rgb(100%,100%,100%);fill-opacity:1;" d="M 224.953125 237.5 L 156.167969 237.5 L 156.167969 250 L 224.953125 250 L 224.953125 237.5 "/>
<path style=" stroke:none;fill-rule:nonzero;fill:rgb(100%,100%,100%);fill-opacity:1;" d="M 237.460938 300 L 156.167969 300 L 156.167969 312.5 L 237.460938 312.5 L 237.460938 300 "/>
<path style=" stroke:none;fill-rule:nonzero;fill:rgb(100%,100%,100%);fill-opacity:1;" d="M 156.167969 281.25 L 193.6875 281.25 L 193.6875 268.75 L 156.167969 268.75 L 156.167969 281.25 "/>
<path style=" stroke:none;fill-rule:nonzero;fill:rgb(100%,100%,100%);fill-opacity:1;" d="M 224.953125 281.25 L 224.953125 268.75 L 206.195312 268.75 L 206.195312 281.25 L 224.953125 281.25 "/>
<path style=" stroke:none;fill-rule:nonzero;fill:rgb(100%,100%,100%);fill-opacity:1;" d="M 325.003906 143.75 L 312.5 143.75 L 312.5 156.25 L 325.003906 156.25 L 325.003906 143.75 "/>
<path style=" stroke:none;fill-rule:nonzero;fill:rgb(100%,100%,100%);fill-opacity:1;" d="M 325.003906 175 L 312.5 175 L 312.5 187.5 L 325.003906 187.5 L 325.003906 175 "/>
<path style=" stroke:none;fill-rule:nonzero;fill:rgb(100%,100%,100%);fill-opacity:1;" d="M 325.003906 206.25 L 312.5 206.25 L 312.5 218.75 L 325.003906 218.75 L 325.003906 206.25 "/>
<path style=" stroke:none;fill-rule:nonzero;fill:rgb(100%,100%,100%);fill-opacity:1;" d="M 325.003906 237.5 L 312.5 237.5 L 312.5 250 L 325.003906 250 L 325.003906 237.5 "/>
<path style=" stroke:none;fill-rule:nonzero;fill:rgb(100%,100%,100%);fill-opacity:1;" d="M 312.5 281.25 L 325.003906 281.25 L 325.003906 268.75 L 312.5 268.75 L 312.5 281.25 "/>
<path style=" stroke:none;fill-rule:nonzero;fill:rgb(100%,100%,100%);fill-opacity:1;" d="M 49.863281 362.5 L 49.863281 375 L 325.003906 375 C 352.582031 375 375.03125 352.5625 375.03125 325 L 375.03125 100 L 362.523438 100 L 362.523438 325 C 362.523438 345.679688 345.695312 362.5 325.003906 362.5 L 49.863281 362.5 "/>
<path style=" stroke:none;fill-rule:nonzero;fill:rgb(100%,100%,100%);fill-opacity:1;" d="M 268.726562 306.152344 L 254.484375 281.25 L 282.96875 281.25 Z M 249.964844 62.5 L 249.964844 50 L 287.484375 50 L 287.484375 62.5 Z M 249.964844 268.75 L 249.964844 75 L 262.472656 75 L 262.472656 268.75 Z M 274.980469 268.75 L 274.980469 75 L 287.484375 75 L 287.484375 268.75 Z M 268.726562 12.5 C 279.082031 12.5 287.484375 20.898438 287.484375 31.25 L 287.484375 37.5 L 249.964844 37.5 L 249.964844 31.25 C 249.964844 20.898438 258.371094 12.5 268.726562 12.5 Z M 268.726562 0 C 251.480469 0 237.460938 14.015625 237.460938 31.25 L 237.460938 275 C 237.460938 276.074219 237.753906 277.148438 238.289062 278.101562 L 263.304688 321.851562 C 264.402344 323.804688 266.480469 325 268.726562 325 C 270.972656 325 273.050781 323.804688 274.148438 321.851562 L 299.160156 278.101562 C 299.699219 277.148438 299.992188 276.074219 299.992188 275 L 299.992188 31.25 C 299.992188 14.015625 285.972656 0 268.726562 0 "/>
</g>
</svg>
