<?xml version="1.0" encoding="UTF-8"?>
<svg xmlns="http://www.w3.org/2000/svg" xmlns:xlink="http://www.w3.org/1999/xlink" width="375pt" height="374.999991pt" viewBox="0 0 375 374.999991" version="1.2">
<defs>
<clipPath id="clip1">
  <path d="M 0 59.660156 L 375 59.660156 L 375 315.410156 L 0 315.410156 Z M 0 59.660156 "/>
</clipPath>
</defs>
<g id="surface1">
<g clip-path="url(#clip1)" clip-rule="nonzero">
<path style=" stroke:none;fill-rule:nonzero;fill:rgb(100%,100%,100%);fill-opacity:1;" d="M 187.5 59.660156 C 102.273438 59.660156 29.488281 112.683594 0 187.535156 C 29.488281 262.382812 102.273438 315.410156 187.5 315.410156 C 272.726562 315.410156 345.511719 262.382812 375 187.535156 C 345.511719 112.683594 272.8125 59.660156 187.5 59.660156 Z M 187.5 272.785156 C 140.453125 272.785156 102.273438 234.59375 102.273438 187.535156 C 102.273438 140.476562 140.453125 102.285156 187.5 102.285156 C 234.546875 102.285156 272.726562 140.476562 272.726562 187.535156 C 272.726562 234.59375 234.546875 272.785156 187.5 272.785156 Z M 187.5 136.382812 C 159.289062 136.382812 136.363281 159.316406 136.363281 187.535156 C 136.363281 215.75 159.289062 238.683594 187.5 238.683594 C 215.710938 238.683594 238.636719 215.75 238.636719 187.535156 C 238.636719 159.316406 215.710938 136.382812 187.5 136.382812 Z M 187.5 136.382812 "/>
</g>
</g>
</svg>
