<?xml version="1.0" encoding="UTF-8"?>
<svg xmlns="http://www.w3.org/2000/svg" xmlns:xlink="http://www.w3.org/1999/xlink" width="75pt" height="37.5pt" viewBox="0 0 75 37.5" version="1.2">
<defs>
<clipPath id="clip1">
  <path d="M 11.53125 0 L 63.339844 0 L 63.339844 37.007812 L 11.53125 37.007812 Z M 11.53125 0 "/>
</clipPath>
</defs>
<g id="surface1">
<g clip-path="url(#clip1)" clip-rule="nonzero">
<path style=" stroke:none;fill-rule:nonzero;fill:rgb(83.918762%,15.689087%,15.689087%);fill-opacity:1;" d="M 62.15625 16.503906 L 46.875 1.183594 C 45.691406 0 43.777344 0 42.59375 1.183594 C 41.414062 2.371094 41.414062 4.292969 42.59375 5.476562 L 52.628906 15.535156 L 14.570312 15.535156 C 12.898438 15.535156 11.542969 16.894531 11.542969 18.570312 C 11.542969 20.246094 12.898438 21.605469 14.570312 21.605469 L 52.789062 21.605469 L 42.59375 31.824219 C 41.414062 33.007812 41.414062 34.929688 42.59375 36.113281 C 43.183594 36.707031 43.960938 37.003906 44.734375 37.003906 C 45.507812 37.003906 46.285156 36.707031 46.875 36.113281 L 62.15625 20.796875 C 63.339844 19.609375 63.339844 17.6875 62.15625 16.503906 "/>
</g>
</g>
</svg>
