<svg width="145" height="170" viewBox="0 0 145 170" fill="none" xmlns="http://www.w3.org/2000/svg">
<path d="M54.7734 32.625V31.625H53.7734V32.625H54.7734ZM68.3438 32.625H69.3438V31.625H68.3438V32.625ZM59.4844 128.109L58.8008 127.379L58.7979 127.382L59.4844 128.109ZM3.72656 106.734V105.734H2.72656V106.734H3.72656ZM17.2266 106.734H18.2266V105.734H17.2266V106.734ZM22.0078 120.445L21.2905 121.142L21.2956 121.147L22.0078 120.445ZM49.5 120.094L48.7881 119.391L48.7834 119.396L49.5 120.094ZM54.7734 105.328L55.7734 105.336V105.328H54.7734ZM54.7734 33.625H68.3438V31.625H54.7734V33.625ZM67.3438 32.625V105.117H69.3438V32.625H67.3438ZM67.3438 105.117C67.3438 114.7 64.4635 122.076 58.8008 127.379L60.1679 128.839C66.3178 123.08 69.3438 115.128 69.3438 105.117H67.3438ZM58.7979 127.382C53.1626 132.702 45.5998 135.406 36 135.406V137.406C45.9939 137.406 54.0874 134.579 60.1708 128.837L58.7979 127.382ZM36 135.406C25.9961 135.406 18.345 132.85 12.9104 127.865L11.5584 129.338C17.4675 134.759 25.6601 137.406 36 137.406V135.406ZM12.9104 127.865C7.48903 122.891 4.72656 115.895 4.72656 106.734H2.72656C2.72656 116.324 5.63597 123.906 11.5584 129.338L12.9104 127.865ZM3.72656 107.734H17.2266V105.734H3.72656V107.734ZM16.2266 106.734C16.2266 112.778 17.8748 117.626 21.2905 121.142L22.7251 119.749C19.7658 116.702 18.2266 112.41 18.2266 106.734H16.2266ZM21.2956 121.147C24.7727 124.675 29.7282 126.367 36 126.367V124.367C30.0843 124.367 25.7116 122.778 22.72 119.743L21.2956 121.147ZM36 126.367C41.8076 126.367 46.58 124.527 50.2166 120.791L48.7834 119.396C45.5762 122.691 41.3486 124.367 36 124.367V126.367ZM50.2118 120.796C53.9109 117.047 55.7252 111.848 55.7734 105.336L53.7735 105.321C53.728 111.465 52.0266 116.109 48.7882 119.391L50.2118 120.796ZM55.7734 105.328V32.625H53.7734V105.328H55.7734Z" fill="white"/>
<path d="M91.8984 86.3984L79.3828 99.4062V134H65.8828V31.625H79.3828V82.25L124.875 31.625H141.188L100.898 76.8359L144.352 134H128.18L91.8984 86.3984Z" fill="#F25F4C"/>
</svg>

