<?xml version="1.0" encoding="UTF-8"?>
<svg xmlns="http://www.w3.org/2000/svg" xmlns:xlink="http://www.w3.org/1999/xlink" width="375pt" height="374.999991pt" viewBox="0 0 375 374.999991" version="1.2">
<g id="surface1">
<path style=" stroke:none;fill-rule:nonzero;fill:rgb(22.349548%,20.779419%,21.179199%);fill-opacity:1;" d="M 370.832031 0.5 C 328.847656 4.148438 291.027344 41.285156 261.132812 68.378906 C 245.023438 82.964844 228.945312 98.570312 213.226562 114.625 C 213.660156 113.863281 214.089844 113.023438 214.523438 111.933594 C 216.746094 106.648438 218.898438 101.832031 222.164062 97.085938 C 224.03125 94.414062 220.296875 90.449219 217.605469 92.515625 C 215.597656 94.050781 213.050781 96.3125 210.71875 98.867188 C 209.785156 96.628906 207.59375 94.972656 204.976562 94.824219 C 192.234375 94.128906 176.589844 100.320312 163.960938 102.890625 C 148.351562 106.070312 132.308594 108.386719 116.878906 112.671875 C 109.773438 113.601562 102.632812 114.441406 95.527344 115.589844 C 76.796875 118.644531 31.652344 123.859375 25.195312 146.796875 C 22.898438 147.523438 20.457031 148.066406 18.160156 148.875 C 15.253906 149.910156 14.824219 153.703125 16.726562 155.394531 C 14.574219 185.214844 29.320312 210.785156 38.902344 238.277344 C 52.679688 277.890625 50.097656 322.820312 61.042969 363.5 C 64.09375 374.734375 78.445312 371.488281 80.3125 361.582031 C 103.167969 362.570312 154.023438 341.304688 166.617188 338.246094 C 195 331.339844 223.746094 326.726562 252.34375 320.992188 C 262.316406 319.003906 275.234375 315.503906 275.09375 303.203125 C 275.09375 302.792969 274.878906 302.359375 274.808594 301.929688 C 275.34375 301.996094 275.777344 302.304688 276.316406 302.328125 L 279.324219 302.382812 C 282.738281 302.429688 285.070312 300.101562 286.214844 297.125 C 293.109375 279.050781 268.386719 237.527344 262.964844 218.773438 C 257.332031 199.371094 252.09375 179.863281 246.386719 160.484375 C 241.363281 173.480469 236.050781 186.417969 230.34375 199.03125 C 239.207031 231.199219 248.71875 263.121094 264.183594 292.308594 C 260.023438 292.796875 257.222656 293.910156 253.308594 295.601562 L 253.167969 295.75 C 245.054688 298.316406 235.875 299.566406 227.871094 300.191406 C 201.671875 302.210938 173.039062 312.710938 147.632812 319.433594 C 126.351562 325.035156 97.003906 330.804688 77.300781 343.53125 C 77.046875 343.28125 76.9375 342.90625 76.652344 342.6875 C 69.511719 310.121094 66.425781 276.902344 59.574219 244.207031 C 53.113281 213.46875 35.460938 186.023438 27.527344 155.464844 C 33.703125 154.746094 39.835938 153.566406 45.9375 152.238281 C 46.363281 152.179688 46.796875 152.078125 47.230469 152.011719 C 47.40625 151.964844 47.546875 151.953125 47.730469 151.917969 C 55.554688 150.589844 63.808594 148.421875 72.023438 146.089844 C 83.109375 143.457031 94.453125 140.867188 105.433594 137.546875 C 106.941406 137.296875 108.480469 136.933594 109.882812 136.765625 C 113.757812 136.308594 117.636719 135.925781 121.46875 135.492188 C 121.726562 134.902344 121.902344 134.3125 122.226562 133.730469 C 122.402344 133.414062 122.585938 133.128906 122.726562 132.824219 C 140.3125 131.050781 157.964844 128.234375 175.046875 124.292969 C 183.480469 122.359375 196.074219 118.941406 204.113281 112.363281 C 204.113281 113.917969 204.363281 115.464844 205.261719 116.90625 C 205.871094 117.964844 207.378906 118.769531 208.636719 118.292969 C 209.390625 118.007812 209.925781 117.703125 210.46875 117.394531 C 189.617188 138.855469 169.558594 161.246094 151.648438 184.191406 C 148.382812 180.058594 143.71875 176.582031 139.8125 173.789062 C 133.566406 169.414062 125.058594 165.902344 117.09375 165.800781 C 117.128906 164.847656 117.128906 163.914062 116.914062 162.949219 C 116.59375 161.425781 115.011719 160.347656 113.503906 160.347656 C 104.785156 160.347656 98.9375 172.445312 94.304688 178.84375 C 86.839844 189.214844 79.808594 199.644531 73.710938 210.910156 C 72.171875 213.808594 76.1875 217.285156 78.484375 214.558594 C 86.589844 204.835938 94.8125 195.199219 103.207031 185.667969 C 106.074219 182.351562 110.492188 178.433594 113.578125 174.128906 C 119.429688 177.785156 126.03125 180.09375 131.523438 184.441406 C 137.585938 189.214844 141.820312 198.15625 149.316406 200.210938 C 151.757812 200.882812 155.132812 199.394531 155.5625 196.667969 C 155.738281 195.824219 155.671875 195.03125 155.671875 194.222656 C 192.058594 167.300781 220.90625 129.503906 252.84375 97.640625 C 274.019531 76.476562 296.375 56.847656 320.667969 39.339844 C 324.574219 36.535156 328.632812 34 332.761719 31.570312 C 299.132812 60.390625 267.378906 92.9375 240.859375 128.324219 C 208.386719 171.515625 192.808594 225.113281 162.917969 270.292969 C 138.304688 249.820312 108.914062 224.953125 79.917969 215.488281 C 77.910156 214.855469 76.003906 216.921875 76.542969 218.875 C 85.339844 250.011719 135.324219 271.0625 158.472656 290.261719 C 163.3125 294.25 169.234375 293.488281 172.890625 288.398438 C 204.003906 244.800781 221.121094 194.019531 247.355469 147.636719 C 271.578125 104.796875 314.710938 76.761719 339.328125 34.25 C 340.835938 31.660156 338.574219 29.378906 336.242188 29.503906 C 348.871094 22.234375 361.859375 15.746094 373.304688 6.554688 C 375.679688 4.660156 373.773438 0.25 370.832031 0.5 "/>
</g>
</svg>
