<?xml version="1.0" encoding="UTF-8"?>
<svg xmlns="http://www.w3.org/2000/svg" xmlns:xlink="http://www.w3.org/1999/xlink" width="30pt" height="30.000001pt" viewBox="0 0 30 30.000001" version="1.2">
<defs>
<clipPath id="clip1">
  <path d="M 19 8 L 29.515625 8 L 29.515625 22 L 19 22 Z M 19 8 "/>
</clipPath>
<clipPath id="clip2">
  <path d="M 0.484375 8 L 11 8 L 11 22 L 0.484375 22 Z M 0.484375 8 "/>
</clipPath>
<clipPath id="clip3">
  <path d="M 0.484375 4.535156 L 29.515625 4.535156 L 29.515625 16 L 0.484375 16 Z M 0.484375 4.535156 "/>
</clipPath>
<clipPath id="clip4">
  <path d="M 0.484375 15 L 29.515625 15 L 29.515625 24.859375 L 0.484375 24.859375 Z M 0.484375 15 "/>
</clipPath>
</defs>
<g id="surface1">
<g clip-path="url(#clip1)" clip-rule="nonzero">
<path style=" stroke:none;fill-rule:nonzero;fill:rgb(100%,100%,100%);fill-opacity:1;" d="M 29.515625 8.28125 L 29.515625 21.148438 L 19.730469 14.847656 Z M 29.515625 8.28125 "/>
</g>
<g clip-path="url(#clip2)" clip-rule="nonzero">
<path style=" stroke:none;fill-rule:nonzero;fill:rgb(100%,100%,100%);fill-opacity:1;" d="M 10.269531 14.847656 L 0.484375 21.148438 L 0.484375 8.28125 Z M 10.269531 14.847656 "/>
</g>
<g clip-path="url(#clip3)" clip-rule="nonzero">
<path style=" stroke:none;fill-rule:nonzero;fill:rgb(100%,100%,100%);fill-opacity:1;" d="M 29.460938 6.109375 C 29.324219 5.222656 28.605469 4.535156 27.703125 4.535156 L 2.296875 4.535156 C 1.394531 4.535156 0.675781 5.222656 0.539062 6.109375 L 15 15.808594 Z M 29.460938 6.109375 "/>
</g>
<g clip-path="url(#clip4)" clip-rule="nonzero">
<path style=" stroke:none;fill-rule:nonzero;fill:rgb(100%,100%,100%);fill-opacity:1;" d="M 15.5 17.6875 C 15.347656 17.789062 15.175781 17.839844 15 17.839844 C 14.824219 17.839844 14.652344 17.789062 14.5 17.6875 L 11.933594 15.964844 L 0.542969 23.300781 C 0.683594 24.175781 1.398438 24.859375 2.296875 24.859375 L 27.703125 24.859375 C 28.601562 24.859375 29.316406 24.175781 29.457031 23.300781 L 18.066406 15.964844 Z M 15.5 17.6875 "/>
</g>
</g>
</svg>
