<svg xmlns="http://www.w3.org/2000/svg" viewBox="0 0 1000 1000" height="1000" width="1000"><g transform="matrix(5,0,0,5,0,0)"><g fill="#020202" fill-rule="evenodd"><path d="M102.39 99.72a.18.18 0 0 0 .16.1 78.17 78.17 0 0 0 7.63-1.82c.7-.18-.12-1.08-.4-.61-1.75.47-5.86 1.31-7.31 2.08a.19.19 0 0 0-.08.25zm3.52-64.81c1.38 0 3.78.51 4.77 1.55.54.59 1.29-.94-1.69-2-4.28-1.46-3.99.45-3.08.45zm1.29 4.21c-1.13 1.76.69 3.11.84 1 .03-.47-.43-1.63-.84-1z"></path><path d="M187.67 117.33c-2.38-18.52-22.57-41.63-49.87-50.88a89.76 89.76 0 0 1 4.58 18.47.38.38 0 0 1-.06.26.37.37 0 0 1-.51.1l-6.59 1.39c.9 1 4 4 4.48 5 1.61.56-6 10.45-7.23 12.12l-.74-.5c2-2.77 6.31-8.21 7.35-11.29-.63-.63-5.21-4.89-5.18-5.51s.38-.44.7-.44c2.28-.64 4.6-1.18 6.93-1.68a126.17 126.17 0 0 0-5-18.34c-4.61-1.4-10-2.83-14.7-2.83a44.32 44.32 0 0 1 .17-11.61 54.75 54.75 0 0 0 9.64-15c2.62-6.56 2.89-16.89-7.09-13.94a6.38 6.38 0 0 0-2.89 1.64c-3.49-13-11.4-13.46-12.86-9.42-5-10-19.54-7.47-16.13.56-8.18-3.61-13.83 10-1.4 13.93a97.12 97.12 0 0 0-2.47 15.06c-.58 8.45 1.9 16.78 10.75 19.28A88.16 88.16 0 0 0 88 66.5a144.6 144.6 0 0 0-5.85 15c-.3 1 0 1 1.17 2.17l5.22 4.73-1.09.36c-.89-.73-6-5.18-6.36-6.22-.52-1.7 4.91-13.77 5.91-15.73C71.2 72 41.84 89.8 38.11 114.35c-3.46 22.83 9.24 30.52 24.24 28.28C68.64 141 78 132 80.88 125.79c-12.29 2-18.72-11.06-12.77-19.18C61 105.78 57.51 107 51 108c-.33.05-.59-.43-.24-.59 4.51-2.17 12.24-2.41 17.14-1.82-.14-3.42 3.18-10.76 5.12-13.7.23-.35.81-.08.59.29a34.81 34.81 0 0 0-4.83 13.53l2.37.15a6.9 6.9 0 0 0-.86 2.94c-.48 5 2.52 13 8.38 13.32 2.32.37 5.07-1.47 5.66-1.86-2.71 9.61-11.39 18.62-20.27 22.74-2.23 14.1-4.25 33.79-4.06 35.1 0 .29 1.73 1.07 4.5 1.87a110.12 110.12 0 0 0-1.11 14.84.19.19 0 0 0 .38 0 146.48 146.48 0 0 1 1.46-14.62c10.27 2.83 32.81 5.46 42.2-11.7-2.36-7.75-3.48-30.91-1.56-39.43-5.79-4.18-13.52-15.45-14.68-17.42.13-.29.25-.58.37-.87 4.87 7.09 8.87 12.62 14.53 17.46a14.65 14.65 0 0 1 1.46-3.26c-2.3-3.59-5.18-10.19-7.93-18.85l6.63-1.94a69.65 69.65 0 0 0-2.67 10.06c.37.85 3 6.2 4.84 9.26.77-.66 4-6.52 5.39-9.52-.22-1.46-1-6.4-1.8-11.37.45-.13 3.2-.45 2.92-1.13.87-.07-4-14.71-4.21-16.41-.47-3.53-1.67-4.61 3.75-9.3.13.2 1.26 2.19 1.73 1.76 2.9-1.21 10.47-9 11.47-13 2.12.36 4.19.85 6.24 1.41a199.34 199.34 0 0 1-10.35 31.49c-2.75-1.81-2.11 1.89-1.48 3.43-4.27 9.69-9.08 18.47-13.76 24.61a10.09 10.09 0 0 0-1.73 4.61c5.94-3.1 14.36-12.84 18.54-18.07a7 7 0 0 0-.29 1.76c-3 3.72-14.23 16.49-18.35 17-.89 9.19-1.06 30.77 2.07 38.1 10.8 20.79 39.46 14.78 49.88 11.27.87 4.29 1.4 8.64 1.84 13a.18.18 0 0 0 .16.16.19.19 0 0 0 .22-.16 70 70 0 0 0-1.5-13.22 12.42 12.42 0 0 0 3.14-1.39c.8-1.15-2.76-26.44-3.34-31.88a45.64 45.64 0 0 1-16.56-9.34c-3.56-3.2-9.4-10.28-9.62-15.33 8.82 3.3 12.72-11.84 10-15.1 4.32-2.48 15.67-3.74 20.8-3.1.39 0 .29.64 0 .64A69.79 69.79 0 0 0 145 107c4.84 6.38-.93 19.79-9.42 20.4 4.92 9.41 19.71 20.22 31 18.72s23.34-11.26 21.09-28.79zM94 50.64c-3.13-1.91-4-4.17-4.39-7.69 0-2.64 1.67-10.6 2.2-13.43 6.39 1.8 14.58 1.29 21-.12 1-.21 4-1.31 4.94-.59a3.73 3.73 0 0 1 .5 2.84c-.28 1.73-2.31 7.05.33 7.86 1.42.44 1.57-1.37 2.76-1.53a2.28 2.28 0 0 1 2.35 2.02c.53 3-4.22 10.16-2.45 23.47a40.8 40.8 0 0 1-11.49 6 76.26 76.26 0 0 1-9.22-5.47c7.26 1.59 15.9-1.5 18.38-9 1.25-3.75 1.22-10.42.17-14.21-.1-.33-.92-.56-.66.43a7.46 7.46 0 0 1-4.26 5.91 4.76 4.76 0 0 0-5.1-2.09c-2.42.6-2.56 2.24-6.83 2.59-2.51.21-7.47-.21-8.23 3.01zm9.58.64c2.68.5 5-1.6 6.61-3.51.86 1.07.52 3.54-.18 4.51-1.76 2.36-5.01.83-6.46-1zm-3.52 13a38.39 38.39 0 0 0 9.29 5.82 64.29 64.29 0 0 0-6.61 7.48c-.6-1.27-4.47-4.06-7.42-12.29a42.46 42.46 0 0 1 4.68-1zm-5.39 1.17c.28 2.6 7.25 13.56 8.16 12.62.72-.74 1.4-1.52 2.09-2.29 2.82 4.78 3.39 4.18 1.54 7.58l-11.91 3.15c-1.3-6.32-2.39-13.1-3.14-20.19a19 19 0 0 1 3.23-.86zm-3 43.05c-1.71 5.23-5 10.56-10.38 12.57-6.47 2.37-10.87-6.46-10.31-11.94.38-3.15 1.25-4.37 3.35-6.88 3.37-4 4.06-2.36 8.19-3.65a8.93 8.93 0 0 0 .7 1.89 25.59 25.59 0 0 1-5 3.12.21.21 0 0 0-.1.25.2.2 0 0 0 .26.11c5.5-2.11 7.08-5.15 9.23-6 3.81-1.55-1.63 5.92-2 6.46a30 30 0 0 1-3.94 4.1c-.33.28.11.81.44.52a32.46 32.46 0 0 0 7.08-9c4.9-4.9 3.4 2.94-4.62 12.13-.27.32.26.7.54.38a47.71 47.71 0 0 0 5-6.89c2.1-3.53 2.73-.52 1.63 2.84zm22.91-7.24c-2.3.23-18.85 5.17-22 6.46.28-1.11.61-5.39-1.39-4.12 2.46-4.62 1.14-7.36-1.77-4.51.37-1.38-.12-2.38-1.76-1.88s-2.81 1.92-4.09 3l-2-8.67c1.73-.45 3.4-1.14 5.08-1.72 7.54-2.6 15.23-4.6 23-6.45.6 3.42 4.02 16.4 4.94 17.9zm1.5-24.35c-1.36-2.59-3.85-4.89-5.82-6.92a34.37 34.37 0 0 0 11.64-6.16 30.16 30.16 0 0 1 5.19.63c-2.78 5.82-6.04 8.79-11 12.46zm-2.19 72.32c-2.14 1-4-1.65-3.48-3.52.65-2.58 4-2.51 4.47.4.19 1.13.12 2.55-.98 3.13zm23.24-28.05c-2.34 1-3.66.5-5.79-.45-2.32-1.13-5.58-3.49-5.83-6.19a11.21 11.21 0 0 1 .38-3.06c.92 1.54 1.76 1.39 1.5 1-.78-1.27-2.62-3.24-1.46-6 5 5.16 4.38 3.13 4.29 3-1.41-1.36-2.55-2.15-4.1-3.79-3.88-4.12-5-8.74-3.26-7.94 1.59.75 8.59 7.2 12.43 8 .61.13 1-4.82 3.93-6.7.82-.53 1 .26.82.91-1.06 5.1 2 7.1 2.39 7.84 1.35 4.37-.86 11.45-5.29 13.39z"></path><path d="M95.65 38.92c-.65 1.07.14 2.56.43 1.79.38-1 0-2.5-.43-1.79zM93.81 91.4c-1.5.44-7.6 2-8.72 2.73-.21.13 0 .39.15.38 1.29 0 7.19-2 8.83-2.47.43-.12.17-.77-.26-.64zm14.37.84c-1.63.32-6.51 1.41-7.7 2.1a.25.25 0 0 0-.1.33.23.23 0 0 0 .25.12c1.21-.31 8.29-1.92 8.66-2.19s.2-.6-1.11-.36zm1.2 3.08a.27.27 0 0 0 .07-.38.28.28 0 0 0-.2-.12c-.5-.13-7 1.81-7.72 2.12a.22.22 0 0 0-.12.3.23.23 0 0 0 .24.14 72.8 72.8 0 0 0 7.73-2.08zm-12.01-62a4.23 4.23 0 0 0-4 2.51c-.2.4.41.68.63.29a3.89 3.89 0 0 1 3.41-1.78c.59-.02.67-.99-.04-1.02zm14.95 111.47c-1.59.38-1.19 2.7-.57 3.29.4.38 2.2 1.1 2.26-.88-.01-1-.3-2.74-1.69-2.41zM101.79 46c-.89.35-1.4.45-1.42-.69a65.45 65.45 0 0 1 .79-7.3.16.16 0 0 0-.3-.1c-.73 1.08-1.62 7.51-.94 8.48.5.73 1.47.5 2.15.2.4-.14.1-.71-.28-.59zm-61.7-14.76c.27-1.24-2-11.63-2.31-13.07-.09-.4-.29-.82-.79-.74-3.37.55-14.71 2.45-17.89 3.39-.29.08-.34.63-.32.86.31 2.51 1.51 11.85 2.1 13.27.2.46 3.51-.33 4-.42l14.92-2.95a.31.31 0 0 0 .29-.34zm-18.7 3.33c-.62-3.28-1.76-11.74-2.15-13.24 5.42-.58 12.06-2.19 17.57-3.19-.81 1.25-6.71 7.86-7.56 8.68 0 0-8-4.21-8.93-4.76-.21-.12-.42.18-.21.3 1.07.67 8.4 5.4 9.23 5.05 1.1.08 7.17-7.57 7.86-8.57q1.21 6 2.41 12.06c-5.51 1.1-12.89 2.52-18.22 3.67zm39.53-11.42c-.09-.31-4.65-2.33-5-1.84-.71-.42-3.08 6.23-3 6.37.08.42 3.42 1.92 3.46 2.07.89 3.63-2 7.25-4.57 9.39-.7-.26-3.5-1.6-3.82-1a45.92 45.92 0 0 0-2.5 5.41c0 .68 3.2 2.71 4.15 3 2.49.67 14.79-12.07 11.28-23.4zm-8.78 21.32c-2.1 1.88-2.23 1.55-4.39.31-.65-.39-1.24-.87-1.88-1.28 1-1.64 1.82-3.36 2.68-5.06a12.41 12.41 0 0 0 3.16 1.25c.95 0 3-2.3 3.51-3.12A10.71 10.71 0 0 0 57 30.82c0-1.82.11-1.4-2.53-2.78a10.23 10.23 0 0 0-1.16-.55A58.83 58.83 0 0 0 56 21.65l4.37 1.85c1.44 8.27-2.04 15.5-8.23 20.97zM53.11 11c.16-.4-.5-.61-.64-.21-4.13 9.77-8 18.71-12.6 28.34C39 41 36.81 45.27 36.18 47a.23.23 0 0 0 .15.28.22.22 0 0 0 .24-.09c2.3-3.65 11.7-24.8 13.13-28.1 1.16-2.74 2.3-5.43 3.41-8.09z"></path><path d="M57.33 52.73c1.4-.5 2.76-1.09 4.11-1.68 5.94 5.87 18.48 7.19 25.83 3.62.58-.28.61-.82.11-.84-8.65-.38-15-2.58-19.38-10.22 8.15-8.14 4.1-29.8-9.24-35.79C53.75 5.57 48.13 5.11 42.68 5c-8.58-.14-16.59 1.25-23 7.43-18.6 18.08-2.07 54.2 37.65 40.3zm-40.84-9.68a23.86 23.86 0 0 1 1.29-27.38C25 6.28 35.65 5.15 46.7 5.88c12.09.81 19.74 5 23.43 17.07 2 6.64 2.3 14.65-2.61 20.17-.18.2 0 .71.12.94 2.71 7 12 10.12 18.84 10.33-14.64 5.32-24.62-4-25.12-3.83-14.96 5.73-34.16 8.52-44.87-7.51z"></path></g></g></svg>