<svg xmlns="http://www.w3.org/2000/svg" viewBox="0 0 1000 1000" height="1000" width="1000"><g transform="matrix(5,0,0,5,0,0)"><g fill="#020202" fill-rule="evenodd"><path d="M163.09 148.87c.37 0 7.31.24 14.26-.27 1.06-.08 1.78-.15 1.94-.17a.14.14 0 1 0 0-.28c-.14 0-3.12-.06-4.05-.06-1.78 0-9.66.2-12.15.49a.15.15 0 0 0 0 .29zm16.22 4.2c-.15 0-3.12-.06-4.05-.06-1.79 0-9.65.2-12.15.49a.15.15 0 0 0 0 .29c.37 0 7.25.24 14.25-.27 1.07-.08 1.79-.14 2-.17a.14.14 0 0 0-.05-.28zm-.22 4.05c-.15 0-3.12-.06-4.05-.06-1.8 0-9.64.2-12.15.49a.15.15 0 0 0 0 .29c.4 0 7.23.24 14.25-.27 1.07-.08 1.79-.15 2-.17a.14.14 0 1 0-.05-.28zm-73.57-92.83c-1.81 0-1.85.84 0 .72 2.33-.14 1.23-.74 0-.72zm7.02.84c.76 0 1.27-.38.37-.68a1.89 1.89 0 0 0-.75 0c-.87.28-.42.67.38.68zm-3.95 4.39c.79.17 1.39.26 1.92-.34s.08-4.27-.2-4.52a.14.14 0 0 0-.24.15v1.37a19.26 19.26 0 0 1-.07 2.63c-.27.4-.84.42-1.35.46a.14.14 0 0 0-.06.25zm1.62-4.62a.1.1 0 0 1-.09 0zm-3.83 1.25a.38.38 0 0 0-.37.35v.66a.36.36 0 1 0 .71 0v-.63a.37.37 0 0 0-.34-.38zm5.49.47v.58a.36.36 0 0 0 .72 0v-.56a.36.36 0 0 0-.72-.02zM171.5 162a2.11 2.11 0 0 0-2.56 2.27 2.33 2.33 0 0 0 .73 1.7 2.28 2.28 0 0 0 1.77.51c4-.32 2.56-4.61.06-4.48zm-.11 3.77a1.73 1.73 0 0 1-1.27-.32 2 2 0 0 1-.11-2.62 2.2 2.2 0 0 1 1.49-.54c1.8.13 2.96 3.3-.11 3.49zM21.14 14.57c3.12-.27 2-3.79 0-3.68-1.28-.07-1.94.55-2 1.87a1.71 1.71 0 0 0 2 1.81zm-1.13-3a1.65 1.65 0 0 1 1.17-.46c1.39.09 2.28 2.73-.09 2.89a1.27 1.27 0 0 1-1-.28 1.79 1.79 0 0 1-.09-2.14zm7.57 2.91c3.13-.28 2-3.8.05-3.68-1.24-.08-1.94.49-2 1.86a1.72 1.72 0 0 0 1.95 1.82zm-1.12-3a1.63 1.63 0 0 1 1.17-.48A1.66 1.66 0 0 1 29 12.64c0 1.32-1.85 1.55-2.45 1a1.76 1.76 0 0 1-.09-2.15zM34 14.51c3.12-.27 2-3.8 0-3.68-1.31-.08-1.94.57-2 1.87a1.71 1.71 0 0 0 2 1.81zm-1.13-3a1.65 1.65 0 0 1 1.17-.47c1.39.09 2.28 2.73-.09 2.89a1.27 1.27 0 0 1-1-.28 1.78 1.78 0 0 1-.07-2.13zm-8.16 26.97a15.52 15.52 0 0 0 2.9 1.8.16.16 0 1 0 .17-.28c-.1-.08-2.07-1.71-3.33-2.86.28-.43 1-.89 3.07-2.82a.17.17 0 0 0-.21-.26c-.78.5-3.56 2.06-3.72 3a.62.62 0 0 0 .1.42 5.29 5.29 0 0 0 1.02 1zm3.07 65.4-2.3-1.94a12.1 12.1 0 0 1-1-.93c.25-.39 1.18-1 3.07-2.81a.17.17 0 0 0-.21-.26c-.76.49-3.56 2-3.72 3a.6.6 0 0 0 .1.41 5 5 0 0 0 1 1 15.87 15.87 0 0 0 2.9 1.8.16.16 0 1 0 .16-.27zm9.28-63.5A19.09 19.09 0 0 0 39.41 39 7.88 7.88 0 0 0 41 37.57a.66.66 0 0 0-.1-.83 15.79 15.79 0 0 0-3.52-2.59.17.17 0 0 0-.21.27c2 1.84 2.82 2.42 3.07 2.81-1.45 1.31-3.08 2.67-3.33 2.87a.16.16 0 0 0 .15.28zm.3 57.62a.17.17 0 0 0-.21.27c2 1.83 2.81 2.41 3.07 2.81-1.47 1.33-3.08 2.67-3.33 2.87s0 .39.17.28a19.09 19.09 0 0 0 2.35-1.39 7.64 7.64 0 0 0 1.59-1.39.67.67 0 0 0-.1-.84A16.27 16.27 0 0 0 37.36 98zm-6.68-56.52A37.26 37.26 0 0 0 34 33.35a.17.17 0 1 0-.31-.13 35 35 0 0 0-3.27 8.13.16.16 0 0 0 .26.13zm2.97 55.62a35 35 0 0 0-3.27 8.13.16.16 0 1 0 .3.12A37 37 0 0 0 34 97.22a.17.17 0 1 0-.35-.12zm-2.2-42.48a.61.61 0 0 0-.63.62.62.62 0 0 0 .61.63c1.43 0 14.84-.12 16.27-.14a.62.62 0 1 0 0-1.24s-15.45.15-16.25.13zm19.71 1.06 27.41-.29a.62.62 0 0 0 0-1.24l-27.41.29a.63.63 0 0 0-.62.63.62.62 0 0 0 .62.61zm30.51-.32h5.34a3 3 0 0 0 .48 0 .62.62 0 1 0 .06-1.24 45.86 45.86 0 0 0-5.9-.09.62.62 0 0 0-.61.63.63.63 0 0 0 .63.7zM24.42 66l10.28-.09a.62.62 0 1 0 0-1.24l-10.27.08a.62.62 0 0 0-.62.62.63.63 0 0 0 .61.63zm42.83-1a.61.61 0 0 0-.62-.61l-28.81.3a.62.62 0 0 0 0 1.24l28.81-.3a.62.62 0 0 0 .62-.63zm19.91-.86-17.63.18a.64.64 0 0 0-.62.63.63.63 0 0 0 .63.62l17.63-.19a.62.62 0 1 0 0-1.24zM24.31 77c2.55 0 20.6-.06 27.57-.1a.63.63 0 0 0 0-1.25s-26.45.12-27.56.1a.63.63 0 0 0-.63.62.63.63 0 0 0 .62.63zm36.87-.2a.63.63 0 0 0 0-1.25h-7a.61.61 0 0 0-.62.62.62.62 0 0 0 .62.62c-.06-.01 5.48.02 7 .01zm1.66-.02 11.27-.14a.62.62 0 0 0 .61-.63.61.61 0 0 0-.63-.61l-11.25.14a.62.62 0 1 0 0 1.24zm23.69-1.53c-1.68.19-7.07 0-9.94.13A.63.63 0 0 0 76 76a.64.64 0 0 0 .65.6c3.3-.11 8.15.08 10-.13a.62.62 0 1 0-.14-1.24zM41.16 84.9c-.76 0-15.89.23-16.64.22a.62.62 0 1 0 0 1.24c1 0 15.29-.2 16.66-.22a.62.62 0 0 0-.02-1.24zm37.41.1a.64.64 0 0 0-.63-.61l-34.31.52a.62.62 0 1 0 0 1.24L78 85.58a.62.62 0 0 0 .57-.58zm45.67-48.17c1.12 2.9 6.69 7 7.3 7.55 0 .82-.21 4.64.24 5.79s7.24 1.26 7.92 0c.32-.57.37-5.67.57-5.93.38-.48 2.77-1 3.39-1.41a12 12 0 0 0 1.88-18.44c-1.57-1.63-6.19-3-8.44-3.08-4.59-.27-9.85 1.34-11.95 5.53a12.26 12.26 0 0 0-.91 9.99zm15.21 13.25c-.57 1-6.93.81-7.25-.06a4.81 4.81 0 0 1-.19-1.31c2.05.71 6 .85 7.61-.09a5.6 5.6 0 0 1-.17 1.46zm.19-1.8c-1.3.45-6.27.28-7.64.1v-1.69a11.37 11.37 0 0 0 7.7-.1c-.02.57-.04 1.16-.06 1.69zm.07-2a31.2 31.2 0 0 1-7.7.12c0-.62 0-1 .07-1.82a13.8 13.8 0 0 0 7.75-.09c-.05.4-.09 1.06-.12 1.78zm-7.65-10.18a1.49 1.49 0 0 0 2.55-.16 2.21 2.21 0 0 0-.85-2.89 4 4 0 0 1 2 0c-.82.92-.88 3 .52 3.33a1.42 1.42 0 0 0 1.63-1.6 3 3 0 0 0-.88-1.74 3.54 3.54 0 0 1 2.14 0c-1.42 1.15-1.2 3 .25 3.24a1.55 1.55 0 0 0 1.65-1 2.47 2.47 0 0 0-.62-2.16 2.17 2.17 0 0 1 1.09.07 2.08 2.08 0 0 1 1 1.28c.27 1.54-.89 2.72-1.87 3.95-.18.22-.91.87-1.43 1.45s-.74.79-1.24 4.15a2.17 2.17 0 0 1-.05.25c-1.06.05-2.29.07-3.65 0a23 23 0 0 0-.91-3.66 6 6 0 0 0-1.47-1.79c-1.1-1.09-2.38-2.66-1.9-4.14a2.6 2.6 0 0 1 1.32-1.38 2.46 2.46 0 0 1 1-.27 2.44 2.44 0 0 0-.28 3.06zm1-2.73c1.53.9 1.39 2.58.18 2.69-.82.07-1.42-1.77-.15-2.7zm3.32 0c.61.51 1.12 1.49.59 2.08-.33.38-1 .27-1.08-.64a1.87 1.87 0 0 1 .52-1.42zm3.36 0a1.87 1.87 0 0 1 .65 1.7.66.66 0 0 1-.34.36.76.76 0 0 1-1.14-.4c-.17-.51.35-1.27.86-1.6zm-14-6.23c2-3.92 7-5.38 11.28-5.13 2.08.12 6.55 1.39 8 2.86a11.52 11.52 0 0 1-1.65 17.56c-.66.45-3.25 1-3.48 1.64-.49.06-1 .11-1.66.14a22.83 22.83 0 0 1 .79-3.46 14.7 14.7 0 0 1 2-2.08c1.12-1.33 2.35-2.57 2.08-4.33a2.56 2.56 0 0 0-1.34-1.77 2.69 2.69 0 0 0-1.86 0 3.76 3.76 0 0 0-3.5-.12 4.1 4.1 0 0 0-3.42.09 2.13 2.13 0 0 0-1.88.18 3.19 3.19 0 0 0-1.63 1.78c-.52 1.73.82 3.4 2.13 4.64a5.82 5.82 0 0 1 1.4 1.7 23.08 23.08 0 0 1 1 3.48c-.62 0-1.26 0-1.92-.08a.58.58 0 0 0 0-.14c-.31-.4-6.11-4.73-7.16-7.5a11.59 11.59 0 0 1 .86-9.4zm-5.35-6.86a11.76 11.76 0 0 0 2 1.94 8 8 0 0 0 1.55 1 .14.14 0 1 0 .18-.22 11.64 11.64 0 0 0-3.54-3 .14.14 0 1 0-.19.28zm29.48 2.64c.27-.15.7-.38 1-.57a16 16 0 0 0 2.2-2l.37-.42a.15.15 0 1 0-.18-.23 8.8 8.8 0 0 0-1.91 1.32 9.74 9.74 0 0 0-1.63 1.65.14.14 0 1 0 .15.25zm4.19 10.64a11.83 11.83 0 0 0 4.59-.56.14.14 0 1 0 0-.28 8.82 8.82 0 0 0-2.32.06 9.53 9.53 0 0 0-2.27.5.14.14 0 0 0 0 .28zm-38.48-.04a11.74 11.74 0 0 0 2.72.55 8 8 0 0 0 1.86 0 .14.14 0 1 0 0-.28 11.6 11.6 0 0 0-4.58-.56.14.14 0 1 0 0 .29zm21.04-14.92a.15.15 0 0 0 .29 0 9.26 9.26 0 0 0 .16-1.5 9.5 9.5 0 0 0-.3-2.78.15.15 0 0 0-.29 0 10.28 10.28 0 0 0-.12 2.57 6.4 6.4 0 0 0 .26 1.71zm39.57 50.88a6.45 6.45 0 0 0 1.56-4.91c.05-4.71-3.1-7.5-7.93-7.33a6.6 6.6 0 0 0-4.82 2.47 7.44 7.44 0 0 0-1.28 5.29c.63 6.9 9.28 7.7 12.47 4.48zm-10.66-9.35a5.93 5.93 0 0 1 4.32-2.13c4.34-.17 7.27 2.25 7.27 6.62a5.92 5.92 0 0 1-1.28 4.57 6.3 6.3 0 0 1-4.45 1.81 8.35 8.35 0 0 1-4.83-1.66 5.82 5.82 0 0 1-2.19-4.43 6.85 6.85 0 0 1 1.16-4.78z"></path><path d="M160.74 56.43a22.5 22.5 0 0 0-2.59-1.2.41.41 0 0 0-.36.11 15.12 15.12 0 0 0-2.21 4.28c-.06.25 0 .33 2.69 1.74a8.49 8.49 0 0 0-.17 1 24.77 24.77 0 0 0-3.22.22.36.36 0 0 0-.27.25c-.28.68.16 4 .49 4.89a.29.29 0 0 0 .23.21c.4.08 3.13 0 3.53 0l.18.42a26.63 26.63 0 0 0-3.14 2c-.34.29 0 .9.27 1.3a16.48 16.48 0 0 0 2.38 3.17.36.36 0 0 0 .33.08c.39-.12 2.75-1.47 3.1-1.67a13.1 13.1 0 0 0-1.29 2.45.64.64 0 0 0 .24.48 14.56 14.56 0 0 0 4.2 2.26c.26 0 .44-.22.87-.79.27-.36.62-.85 1-1.39l.24.07a13.07 13.07 0 0 0 0 2.8.62.62 0 0 0 .45.32 14.29 14.29 0 0 0 4.76 0 .43.43 0 0 0 .19-.19 15.63 15.63 0 0 0 .39-2.48 15.41 15.41 0 0 0 2.57-.52 19.45 19.45 0 0 0 2.1 2.7.66.66 0 0 0 .53 0 15.73 15.73 0 0 0 3.6-2.46.59.59 0 0 0 .2-.52 20.85 20.85 0 0 0-1.54-2.66 7.28 7.28 0 0 0 .51-.62 15.08 15.08 0 0 0 2.76 1.18.6.6 0 0 0 .46-.24 13 13 0 0 0 2-4.17c0-.24-.11-.43-2.73-1.86.06-.26.11-.51.15-.81 3.07-.12 3.21-.23 3.31-.7a14.89 14.89 0 0 0-.45-4.32.62.62 0 0 0-.33-.46 23.55 23.55 0 0 0-3.36-.13 9.54 9.54 0 0 0-.23-.5 21 21 0 0 0 3.13-2.07.5.5 0 0 0 0-.44 13.21 13.21 0 0 0-2.7-3.77.33.33 0 0 0-.23 0 24.09 24.09 0 0 0-3.1 1.53l-.35-.35a24.22 24.22 0 0 0 1.74-3.05.38.38 0 0 0-.1-.39 16.42 16.42 0 0 0-4.34-2.39c-.19-.06-.27-.09-2.19 3l-.47-.13a24.94 24.94 0 0 0 .09-3.56.33.33 0 0 0-.24-.24 16.45 16.45 0 0 0-4.92 0c-.14 0-.22 0-.45 3.62a12.48 12.48 0 0 0-2.72.61 24.86 24.86 0 0 0-1.73-2.66.31.31 0 0 0-.31-.06 14.87 14.87 0 0 0-3.97 2.68c-.14.14-.09.28 1.56 2.77-.17.23-.36.43-.54.66zm-.63-3.25a14.47 14.47 0 0 1 3.65-2.52c.19.21.45.53.75.93 1.15 1.52 1.09 1.68 1.29 1.61a12.5 12.5 0 0 1 2.88-.68c.19 0 .09 0 .31-2.28.07-.62.12-1.1.16-1.31a16.14 16.14 0 0 1 4.62.09 28.43 28.43 0 0 1-.15 3.57.21.21 0 0 0 .16.22l.77.24c.23.08.14 0 1.44-1.9.32-.48.58-.86.73-1a16.62 16.62 0 0 1 3.91 2.21 29.68 29.68 0 0 1-1.8 3 .27.27 0 0 0 0 .35c.64.6.7.85 1 .7.52-.28 2.56-1.38 3.06-1.54h-.07a14 14 0 0 1 2.36 3.4c-.39.36-2.66 1.68-3.13 2a.32.32 0 0 0-.13.42c.44.89.4 1.13.72 1.12.67 0 2.69 0 3.25.09a14.15 14.15 0 0 1 .44 4 29 29 0 0 1-3 .2.35.35 0 0 0-.33.3 7.16 7.16 0 0 1-.24 1.26.34.34 0 0 0 .24.34c.57.32 2.13 1.19 2.58 1.52a15 15 0 0 1-1.84 3.57c-.46-.13-2.22-1-2.65-1.23a.36.36 0 0 0-.45.11 8.08 8.08 0 0 1-.81 1 .35.35 0 0 0 0 .43c.37.57 1.32 2.08 1.54 2.56a14.68 14.68 0 0 1-3.3 2.25 8.23 8.23 0 0 1-.73-.92c-1.28-1.72-1.25-2-1.62-1.85-2.51.79-3.23.35-3.29.92s-.21 2-.32 2.41a16.62 16.62 0 0 1-4.15-.06c-.06-.44 0-2.23 0-2.68a.34.34 0 0 0-.27-.36l-.74-.21a.37.37 0 0 0-.4.14 24.88 24.88 0 0 1-1.49 2 16 16 0 0 1-3.63-2c.16-.41 1.09-2 1.33-2.33a.34.34 0 0 0-.07-.44l-.37-.35a.35.35 0 0 0-.42 0c-.76.44-2.42 1.38-3 1.68a16 16 0 0 1-2.38-3.4 35.75 35.75 0 0 1 3.14-1.94.33.33 0 0 0 .14-.42l-.36-.88a.32.32 0 0 0-.32-.21c-.95 0-2.8.06-3.44 0a15.7 15.7 0 0 1-.48-4.18 31.08 31.08 0 0 1 3.21-.22.29.29 0 0 0 .28-.25c.21-2.39 1-.91-2.5-3a15.17 15.17 0 0 1 2-3.85c.67.23 2 .88 2.61 1.2a.21.21 0 0 0 .29-.07c.62-.89.89-.94.74-1.17-.45-.62-1.45-2.1-1.72-2.59zm-20.87 53.24a.14.14 0 1 0 .28 0 9.15 9.15 0 0 0 .13-1 14.34 14.34 0 0 0-.11-1.87 8.9 8.9 0 0 0-.23-.93.15.15 0 1 0-.29 0 6.51 6.51 0 0 0-.11 1.88 6 6 0 0 0 .33 1.92zm2.16-.07a.15.15 0 0 0 .29 0c0-.22.1-.6.12-.94a12.92 12.92 0 0 0-.11-1.88c-.06-.36-.19-.79-.22-.92a.15.15 0 0 0-.29 0 6.27 6.27 0 0 0-.11 1.89 5.72 5.72 0 0 0 .32 1.85zm2.21-.19a.15.15 0 0 0 .29 0c0-.23.1-.61.12-1a12.78 12.78 0 0 0-.11-1.87c-.06-.37-.19-.79-.22-.93a.15.15 0 1 0-.29 0 6.18 6.18 0 0 0-.11 1.88 5.78 5.78 0 0 0 .32 1.92z"></path><path d="M188.42 116.38a.37.37 0 0 0-.36-.26c-2.44.06-18.16.37-38.37.77a5.53 5.53 0 0 0-.22-2.11c-.22-.31.52-.1-10.47 0-.05-1.26-.15-2.75-.32-4.39a83.12 83.12 0 0 0 10.22-1.28.44.44 0 0 0 .26-.3c.65-2.14-2.47-32.49-3.36-32.57-3.18-1.33-20-1-32-.23.68-1.53 1.13-2.86.6-4.42a1.12 1.12 0 0 0-.13-.24c.25-1.4.35-2.9.52-4.26.22-1.77 1-3.61.76-5.43l.42-.16c2.83-1 5.32-2.89 5-5.87a3.92 3.92 0 0 0-4.49-3.24c-.5.08-1.13.68-1.4.79-.2-.21-.53-.65-.59-.71a5 5 0 0 0-5.15-1.21c0-5-.23-39.09-2.07-43.71-1.51-3.8-88.23-3-94.21 0a.93.93 0 0 0-.55.58c-1.37 7.38-1.51 103.18.27 107.23.52 1.18 27.73 1.5 52.93 1 .07.74.15 1.49.23 2.24-11.41.25-19.38.46-21.06.55-.9 0-.44 2.69-.33 3.68 0 0 2.66 0 7.24-.06-1.44 14.54-3.18 67.06-2.89 69.4 0 .25.1.46.35.5a14.49 14.49 0 0 0 2.07.15.37.37 0 0 0 .37-.34s3.52-60.6 4.14-69.72c.71-.09 5.24-.2 10.52-.19.13 1.22 1.94 18.34 2.51 19.4-.06 2.06 0 5.32 1 7.07.29.54 2.89 1.41 6.69 2.39-.49 3.83-3.72 30.23-3.95 32.51-.34 3.46-.56 6.16-.57 7.44 0 .47 0 1 .26 1.12 1.12.63 2.36.71 2.6-.55 2.51-13.14 3.78-21.55 6.48-39.35 5.56 1.28 12.24 2.61 18 3.63 5.46 32.88 5.55 31.67 6.16 31.72a13.1 13.1 0 0 0 .37 3.07 2.54 2.54 0 0 0 1.07 1.44c1.29.92 7.09 3.24 8.4 2.3.6-.38.44-1.41.46-1.23-.12-1.28-1.77-2.38-2.87-3.05-2.07-1.26-2.11-1-2.34-2.81a2.36 2.36 0 0 0 .48-.14c1.13-.53 6.62-18.89 9.1-31.7l2.71-.73c2.64 17.48 3.54 23.38 5.86 35.51.25 1.26 1.48 1.18 2.6.55.28-.16.27-.62.27-1 0-4.55-3.63-32.91-4.07-36.3l1.73-.5c2.43 11.8 7 32.38 8 34.28.19.35.39.31.79.34a13.27 13.27 0 0 0 .56 3.9c.62 1.57 3.44 1.21 6.3 1.32 1 0 3.71-.13 4.59-.78a.89.89 0 0 0 .39-.59c.29-2.35-4.12-2.9-6.49-3V188c.53 0 1.28-.06 1.43-.48.2-.58 3.28-24.37 3.29-24.47 2.33-18.16 2.94-32.7-13.4-41.5l11.19-.19a19.34 19.34 0 0 0 .82 2.27c1.83 3.12 2.88 4.14 6.37 3.63 2.32-.34 4.87-1.08 6.71.42.86.69.65 2.8.8 4.16a10.58 10.58 0 0 0-2.44.8 12.6 12.6 0 0 0-5.06 5.43c-1.81 3.51-1.43 7-.94 10.85a18.36 18.36 0 0 0 6.4 12.4c.06 12.34.77 27.23 1.43 27.81 1.34 1.17 17.15 1.36 22.12-.28.07 1 .1 1.58.1 1.58a.35.35 0 0 0 .36.33c2.24 0 2.26-.19 2.34-.32.77-1.31-2.12-64.27-3-69.74 4-.08 6.23-.15 6.26-.18a1 1 0 0 0 .17-.55 19.43 19.43 0 0 0 .03-3.59zm-41.56 75.24a2.27 2.27 0 0 1 .75-1.54 3 3 0 0 1 1.55 1.08 4.17 4.17 0 0 1-2.32.57.36.36 0 0 0 .02-.11zm-1.32-2 .06-.07c.4.08.82.18 1.23.3a2.9 2.9 0 0 0-.67 1.92h-1.42a2.47 2.47 0 0 1 .8-2.17zm-2.41-1.6v1a.18.18 0 0 0 .18.19s.64.05 1.5.19a3 3 0 0 0-.73 2.28c-1.87-.14-4.56-.46-4.94-.47a9.66 9.66 0 0 1-.66-3.25c1.09.04 3.22.1 4.65.04zm2.54-111.53c.88 2.22 3.35 28.56 3 31.93-.05.39-7.21 1.12-15.88 1.79-.89-3.5-2-7.13-2.67-8.07-.54-.76-6.71-.13-7.87.16-.31.08-.5.18-.54.26a52 52 0 0 0-2.61 8.57c-8.27.48-15.34.73-16.46.39-.86-2.57-2.11-31.38-.59-33.56 2.64-1.15 38.74-3.43 43.62-1.49zm-30.73 35.59c1.27-.06 2.6-.14 4-.22-.19 1-.38 2-.56 3.08h-1.7a3 3 0 0 0-1.74-2.88zM96.43 118c0 .09.71 0-22.71.49 0-.11-4-10.86 2.83-25 4.6-9.59 13.3-15.16 23.74-16.75.17.17.14.12.19.33a2.5 2.5 0 0 0 .66 1.41c-.94 4.07-.48 20.63.19 28.86-3.72-.89-7.69-1.31-9.4-1 .69-3.27 1.57-8.56 1.4-11.9a.15.15 0 0 0-.15-.14c-.5 0 .66 1.36-1.79 12.3a.24.24 0 0 0 .3.29c1.61-.45 5.86.11 9.7 1.1a23.75 23.75 0 0 0 .51 3.81c.11.31.23.45.72.53a50.26 50.26 0 0 0 5.81.09c-.34 1-.69 2-1.11 2.93-3.26.13-6.76.31-10.58.54-.89-.03-.45.96-.31 2.11zm12.71-5.65 4.17-.17c1.54.46 2.9 1.36 3 2.82-2.6.06-5.33.15-8.26.26.42-.97.77-1.94 1.09-2.95zm12.77-9.63a24.82 24.82 0 0 1 7.75-.24c1 1.58 3.63 12.58 3.79 14.62-2.22.48-13 1.07-14.87.47a66.24 66.24 0 0 1 3.33-14.89zm11 8.18c1.9-.15 3.72-.3 5.42-.46.17 1.49.28 2.95.33 4.36h-4.86c-.23-1.14-.54-2.51-.89-3.94zm-26.23-38.82a6.49 6.49 0 0 0 1.27.84c.33.16 1.26.5 1.47.56a.15.15 0 0 1 0 .29 2.72 2.72 0 0 1-.9.06 3 3 0 0 1-1.63-.8 1.8 1.8 0 0 1-.45-.82.14.14 0 1 1 .24-.13zm8.2-10.16c.09 1.65-.58 3.42-.79 5.06-.14 1.16-.23 2.52-.45 3.84a5.38 5.38 0 0 0-1.7-.52c-2.85-.4-6.67-1.24-10.43.67 0 0-.49.12-.65.15-.06-.41.23-.9.2-2.17a26.49 26.49 0 0 0-.45-2.94c0-.16-.26.21 2.23-3.11.14-.13 1-2.4 1.35-3 1.2 1.07 3 1.2 4.48 1.48 1.91.33 4.43 1.18 6.21.54zM13.3 8.29c4-2.88 87.93-3.54 93.27-.42.67 1.76 1.06 8.17 1.17 10.06-6 .09-86.29.49-95 .47.14-5.23.34-8.87.56-10.11zm-.17 106.89c-1.36-3.22-1.27-69.79-.43-96.45 7.65.06 86.63.1 95.09 0 .45 8.29.7 20.26.79 32.9a2.58 2.58 0 0 0-1 1.37 2.9 2.9 0 0 0-1.49-.72 3.15 3.15 0 0 0-1.06 0 5.35 5.35 0 0 0-1.63.61 2 2 0 0 0-1 1.17 3.2 3.2 0 0 0-2.85.33 7.09 7.09 0 0 0-1.33.87c-2.52 2.16-3.66 7.44-1.2 9.9.21.22.42.5.67.73-.51.91.15 2.22 1.15 3.36-.42 2.84-1.14 4.78.86 6.79-8.18 1.35-15.3 5.13-20.23 11.38-7.16 1.16-14.3 3-15.51 5.27-.31.59.62 11.61 1.77 23.08-24.52.55-50.94.42-52.6-.59zm86-48.7c0 .42-.19 1.21-.19 1.36a7.86 7.86 0 0 1-.05.83c-.59-.7-1.26-1.74-.92-2.52.38.26.66.2 1.15.33zM64.47 93c1.38-2.53 11.69-4.49 14.55-5-10.68 14.2-6 30.39-6 30.49l-3.35.08c-.88-10.57-1.89-23.17-1.94-23.92a.15.15 0 0 0-.29 0c.29 7.12.67 15.6 1.36 23.89h-2.12c-1.24-11.77-2.37-24.02-2.21-25.54zM51 192.11c-.4 0-1 0-1.39-.08-.37-3.12 1.72-60.45 2.48-69.23h3.41c-.58 7.9-4.33 66.93-4.5 69.31zm16.1-69.53h2.05c.52 5.44 1.18 10.71 2 15.38a.14.14 0 0 0 .16.11c.24 0 .08.18-.52-5.33-.06-.54-.41-4.74-.86-10.17l4.32-.06a31.23 31.23 0 0 0 2.24 10 20.65 20.65 0 0 0 3.32 5.5c-4.91 1.8-9.15 3.27-10.37 3.54-.34-1.48-1.33-9.68-2.34-18.97zm7.11 69.26a.54.54 0 0 1-.16.33c-.29.23-1 0-1.27-.21-.18-1.38 3.74-37.4 4.07-40.44 1.28.33 2.68.67 4.17 1-1.02 5.87-5.97 34.97-6.81 39.32zm-3.77-43.08c-.87-1.59-1-4.72-.94-6.55.93-.18 5.53-1.77 10.86-3.71a14.52 14.52 0 0 0 3.82 2.94 33.39 33.39 0 0 0 6.56 2.64 36.29 36.29 0 0 0 6.8 1.19c0 .22.23 1.26.5 2.88l-24.93-5.3a.15.15 0 1 0 0 .29c1.82.43 14.44 3.47 25.1 5.84l1.08 6.51c-12.09-2.16-28.24-5.63-28.85-6.73zm44.61 44.55a2 2 0 0 1-1.41.33 4.34 4.34 0 0 1-1-.29 5.29 5.29 0 0 1 1.79-.9 2.47 2.47 0 0 1 .62.86zm-1.19-1.42a5.35 5.35 0 0 0-1.92 1.18c-.47-.19-1-.4-1.52-.63a3.9 3.9 0 0 1 2.42-1.29c.34.23.69.48 1.02.74zm-1.86-1.28a4.64 4.64 0 0 0-2.31 1.53c-1.44-.61-2.83-1.24-3.37-1.5a13.93 13.93 0 0 1-.45-2.66 29.23 29.23 0 0 0 4.35-.25c.13 1.69.22 1.8 1.78 2.88zm-.39-62.15a.14.14 0 0 1 .12-.26c6.5 2.43 9.78 6.55 10.5 12.68a36 36 0 0 0 5.48 4.36c0 .22.11.79.26 1.62l-6.74 2c1.06-9.78-1.07-16.28-9.59-20.4zm19.24 62.14a2.21 2.21 0 0 1-.91.29c-.3 0-.45-.09-.52-.42-.76-3.95-5.09-29-6.19-35.47l4-1.11c.51 4.2 3.86 33.6 3.65 36.71zm-10.56-35.54c.34-1.78.65-3.64.86-5.45 2.25-.69 4.67-1.46 6.92-2.19.25 1.3.6 3.09 1 5.2-2.85.85-5.97 1.7-8.75 2.44zm38.29 5.84a18 18 0 0 1-5.84-12.06c-.42-3.71-.77-7.15 1-10.48a12.08 12.08 0 0 1 4.77-5.11 10 10 0 0 1 2.22-.73c.6 4.07 2.51 8.82 6.6 8.32 5.23-.66 5-8.7-3.25-9.27a13 13 0 0 0-2.79.13c-.17-1.42 0-3.63-1.07-4.51-2.06-1.62-4.66-.84-7.16-.43-3.24.53-4.17-.32-6-3.32a18.37 18.37 0 0 1-.81-2.11c12.84-.21 24.13-.41 31.75-.57.09 1.94.69 11.91 1.42 23.73-5.12-.2-19-.59-19.87.49-.72.91-.97 7.82-.94 15.92zm2.78-28.5c2.66-.41 5.86 0 7.68 2 2 2.11 1.19 5.37-1.82 5.75-3.59.44-5.29-4.15-5.83-7.75zm-.87 56.17s.07 0 0 .06c-.62.3-2.09-37-.77-42.76.13-.6.17-.57.4-.64 2.21-.71 14.25-.54 19.25-.42 1 16.58 2.26 36.68 2.68 43.33-4.11 1.58-20.29 1.34-21.53.43zm23.83 1.36c-.39 0-1 .08-1.39.09-.13-2.38-4-61.12-4.65-69.26l3.4-.07c.32 3.75 3.01 66.08 2.67 69.24zm3.3-70.06c-.36.07-1.15 0-142.79 2.71 0-.39-.41-3.07.09-3.1 3.73-.19 38.72-.83 73.17-1.43 1.27.77 12.15.34 15.14-.27 27.39-.47 51.3-.87 54.51-.94a29.86 29.86 0 0 1-.09 3.03z"></path></g></g></svg>