<svg xmlns="http://www.w3.org/2000/svg" viewBox="0 0 1000 1000" height="1000" width="1000"><g transform="matrix(5,0,0,5,0,0)"><g fill="#020202"><path d="m127 33 8.69 4.68a.45.45 0 0 0 .6-.16l.09-.16a.45.45 0 0 0-.17-.61l-2.54-1.41a1.87 1.87 0 0 0-.8-2.64 1.78 1.78 0 0 0-2.52.76L127.49 32a.44.44 0 0 0-.6.19l-.12.21a.45.45 0 0 0 .23.6zm17.34 16.06c-2.25 3.92-.19 6.51.35 7s2.63 1.2 3.51-2c1-3.64-1.94-7.78-1.94-7.78-.26-.41-1.92 2.78-1.92 2.78zm.4.64c.12-.36.62-1 .95-.35s-.26 1.89-.26 1.89-.49 1.85-.93 1.09.24-2.63.24-2.63zm1.07 4.94c0 1-1.31.58-1.45.08s-.05-.95.57-1.09a.87.87 0 0 1 .88 1.01zm-5.06 8.13-1.35-4.16-2.72-.92-2.18.69c-.48-.35-2.5-2.22-3.19-2.62-.06-1-.05-2.11-.19-3.13 0-.08-4.82-2.13-4.82-2.13l-2.08.28-.62 1.82-5.85 2c-.09-.06-1.77-1.24-1.79-1.24h-2.91l-3 2.83 1.56 3.54-1.85 5c-.7.08-2.09.4-2.11.41l-1.69 1-.19 5.17 3.18.91 2.56 4.54-1.13 3.24 3.82 3h1.91a18.82 18.82 0 0 0 2.15-2.23 38.77 38.77 0 0 0 4.78.95l.62 2.8 1.92.41s5.1-.66 5.1-.76a24.59 24.59 0 0 0 .07-3.54 29.92 29.92 0 0 0 4.4-3.63 13 13 0 0 0 3.54 1 21.26 21.26 0 0 0 2-3.84s-2-2.7-2-2.72c-.12-2.16-.11-4.29-.17-6.44a13.93 13.93 0 0 0 2.23-2.23zm-2.24 8.54a1.07 1.07 0 0 0 .14.43 13 13 0 0 0 1.85 2.37c-.7 1.19-1.88 3.78-1.88 3.79-1.15-.3-3.49-1-3.49-1s-4.59 3.69-4.59 3.74c-.12 1.12 0 2.26-.07 3.39-1.65.11-3.3.4-4.92.66l-.81-3s-4.41-.71-6.51-1l-2.25 2.19-3.55-3 1.39-2.88-3.15-6-3.11-1 .16-4.8s2.92-.4 3.71-.38c.09 0 2.47-5.51 2.47-5.51l-1.39-3s3.38-2.91 3.39-2.89a36 36 0 0 0 2.92 2.24l6.68-1.64.76-3.38a47.85 47.85 0 0 0 4.69 2c0 1 .1 2 .14 3l4.64 4.07 3.57-1.17s.88 2.65 1.26 4c-.38.34-2.22 2.24-2.22 2.29a23.58 23.58 0 0 0 .17 6.48zm22.68 4.12C156.9 78.8 159 87.92 167 88.62c2.94.26 7.61-1.87 7.16-7.79-.4-5.22-6.86-10.18-12.97-5.4zm4.59 12.76a5.83 5.83 0 0 1-2.63-1.12c-4.13-2.28-5.17-9.2-2-11.18 6.59-4.16 9.37 1.57 10.21 5.27a5.76 5.76 0 0 1-5.58 7.03zm-44.13 18.49c-4.14-1.7-9.6 1.95-9.75 6.47-.14 4.07 3.83 7.71 7.8 7.67 5.59.77 7.3-4.75 7.3-4.75 1.21-7.5-4.36-9.16-5.35-9.39zm2.67 8.63c-.4 3.42-3.59 4.68-5.09 5.08a6.78 6.78 0 0 1-4.23-1.69 7.77 7.77 0 0 1-2.72-5.17 7.39 7.39 0 0 1 2.77-5.36 6.78 6.78 0 0 1 3.14-1.37 6.29 6.29 0 0 1 3.87.37c1.6 1.73 2.74 4.08 2.26 8.14z"></path><path d="M148.84 115.05s-2.2-1.31-3.33-1.9v-4.25a18.16 18.16 0 0 0 2.93-2.09 26.44 26.44 0 0 0-1.14-4.42c-.58 0-2.74.14-3.22.2a27.24 27.24 0 0 0-2.66-3.89 19.47 19.47 0 0 0 1.68-3.58c-.39-.43-1.5-2-1.81-2.18l-1.67-.68-3.26 1.34c-.3-.29-2.09-1.84-2.72-2.33a20.16 20.16 0 0 0 .17-3.62c-.71-.42-3-2-3.57-1.83h-1.78L126.69 88a22.11 22.11 0 0 0-4-.68 13.93 13.93 0 0 0-1.32-3.32l-3.63-.43-1.62.76-.44 2.07-3.88.69c-.67-.7-2.2-1.92-2.2-1.92l-2.09.25-3.51 1.64.38 3.57-3 2.46c-.8-.4-2.42-1.09-2.42-1.09l-2.24.47-2.72 2.7 2.07 3.5-1.15 3.19-3.44.1-1.65.73-.47 3.67 2.31 2 .06 4.78c-.69.35-3.45 2-3.45 2l.19 4.24 3.86 1.3 1 3.45-1.77 2.37 1.33 3 1.27.38a18 18 0 0 0 3.77-.38s1.51 1.72 1.63 1.88l-.78 3.85s.91 1.6.93 1.62c.51.56 3.43 2.91 3.46 2.89.52 0 3.53-2.09 3.54-2.1.79.4 1.64.68 2.45 1l.19 3.69s5.22 1.8 5.66 2a31.1 31.1 0 0 0 1.6-3.63 18.71 18.71 0 0 0 2.43-.11l1.81 3.59h1.85s4.78-1.29 4.79-1.33a21.1 21.1 0 0 0 .2-3.55s2.88-1 4.25-1.65c1.06.84 2.29 1.52 3.39 2.31a30.18 30.18 0 0 0 2.79-2.36s-.71-3.5-1-4.24a28.7 28.7 0 0 0 3.13-3.2 16.5 16.5 0 0 0 3.57.88 39.12 39.12 0 0 0 2.24-3.5 34.85 34.85 0 0 0-2.35-3.1 28.4 28.4 0 0 0 1.24-4.08c.58-.18 3.56-.48 3.56-.48a.59.59 0 0 0 .19-.28 18.91 18.91 0 0 0 .19-4.45.07.07 0 0 0-.05-.1zm-.33 4.52c-.44-.23-3.72.52-3.74.58-.22.72-1.16 3.48-1.3 4.18 0 .11 2 2.8 2.39 3.29a28.7 28.7 0 0 0-2 3.15 11.05 11.05 0 0 0-3.7-.81l-3.22 3.35.89 4.17c-.84.69-1.64 1.46-2.44 2.19a14.07 14.07 0 0 0-3.47-2.28c-.05 0-4.44 1.68-4.45 1.71-.15.57 0 3.06-.22 3.67a26.57 26.57 0 0 0-4.57 1.14l-1.88-3.86s-4.47.47-4.5.55a33 33 0 0 0-1.34 3.46c-1.32-.56-2.7-.86-4-1.3l-.3-3.63-4-1.78a32.29 32.29 0 0 0-3.45 2.13 40.53 40.53 0 0 0-3.39-2.86s1-3.86 1-3.93a21 21 0 0 0-2.86-3.56 30.39 30.39 0 0 0-3.79.59l-1.37-2.89 2.19-2.63-1.17-4.72-3.82-1.29-.23-3.67c.58-.2 3.17-1.53 3.88-2 .07 0 0-4.73 0-4.73L91 105.28l.51-3.18a26.3 26.3 0 0 0 4.86 0c.07 0 1.75-4.08 1.75-4.08l-1.85-3.13 2.54-2.69c.63.33 3.84 1.75 3.84 1.75l3.69-2.95-.34-3.6s3.57-2.16 3.59-2.14l2.67 2.82 4.81-.55.68-3.78s2.39.45 3.53.5c.1.49.88 2.54 1.07 3.08a.17.17 0 0 0 .14.12c1.26.44 6 1.31 6 1.31L130.4 86l3.28 1.9c-.09.51-.25 3.36-.25 3.36l3.64 3.45 4-1.71a27.32 27.32 0 0 0 1.73 2.28c-.31.46-1.33 2.76-1.6 3.4a21.1 21.1 0 0 0 2.59 4 27.42 27.42 0 0 0 3.48 0 33.47 33.47 0 0 0 1 4.16 18.41 18.41 0 0 0-3 2c-.06.06.11 4.39.11 4.39a25.47 25.47 0 0 0 3.39 1.93c-.23 1.38-.26 4.41-.26 4.41zm-26.08-55.1a3.61 3.61 0 0 0-2.26 3.58c.08 1.82.62 4.55 4.46 4.5a3.49 3.49 0 0 0 3.74-3.41 4.32 4.32 0 0 0-5.94-4.67zM127 69.2a3.2 3.2 0 0 1-4.1 2.8c-1.15-.33-2-1.9-2.25-3-.39-1.5-.11-3.26 1.34-4 3.62-1.67 5.22 2.05 5.01 4.2z"></path><path d="M194.37 75.29c-1.37-.29-4.07-1.11-4.09-1.15-.79-1.78-1.4-3.63-2.15-5.42a32.22 32.22 0 0 0 2.31-3.72 61.87 61.87 0 0 0-4.44-5.7c-.06-.06-3.05-.17-3.05-.17l-3 1.92C179.67 60.86 177 59 177 59c-.19-1.65 0-3.35-.25-5l-6.53-1.72-2.69.63-1 2.72-5.48.71c-.26-.32-1.5-2.09-2-2.54l-2.79-.19-5.26 2.47.25 4.91-3 3.15c-.42-.08-4.25-.65-4.25-.65l-1.55.28-2.46 6 2.31 3.32-.79 4.78-4 1.65-.17 5.48s1.43 1.74 1.46 1.76a26.55 26.55 0 0 0 3.58 1l1.8 5.66-1.33 4.53L146 102l2-.16c.38.12 3.2-1.23 4.1-1.63 1.1.77 2.29 1.47 3.46 2.15l.65 4.58 1.35.89a62.63 62.63 0 0 0 6.66 2.12s2.24-4.39 2.22-4.43a19.3 19.3 0 0 0 3.79-.18l2.29 4 2.18-.07a55.16 55.16 0 0 0 6.3-2.77.36.36 0 0 0 .13-.23c-.08-1-.66-5.37-.65-5.37.68-.41 3.74-3.47 3.74-3.47 1.07.27 4.62 1.14 5.34 1.21a43.29 43.29 0 0 0 3.23-5.24c0-.06 0-.21-.07-.24-.8-.76-2.92-3.71-3.52-4.14.42-1.69 1-5.2 1-5.22 1.67-.52 3.11-1.56 4.77-2a63.57 63.57 0 0 0-.6-6.51zm-4.48 8.49A44.36 44.36 0 0 0 189 89a27.62 27.62 0 0 0 3.51 4.34c-.94 1.69-2.06 3.29-3 5-.8-.15-5.45-1.16-5.51-1.1a45.52 45.52 0 0 0-3.65 3.53s.34 4.53.5 5.4l-6.19 2.83-2.57-4.23-5.8.57s-1.48 2.86-2.09 4.3a52.81 52.81 0 0 0-6.44-2l-.57-4.76s-3.46-2.2-4.95-2.92c0-.07-2.94 1.15-4.29 1.68l-3.46-3.91 1.31-4.17-1.8-5.82s-4.33-1.11-5.1-1.12l-.18-6.4 4.17-1.61.89-6.06-2-3s2.19-6 2.2-6c1.38.44 5.4 1.05 5.4 1.05l3.95-3.76-.33-3.97 6-3c.38.65 2.75 3.85 2.75 3.85l6.77-.73 1.65-4.55s4.29 1.16 6.4 1.65c0 0 .13 5 .17 5 .62.57 4.76 3.28 4.76 3.28l4.35-2.89c.71 1 3.54 4.73 4.31 5.48a41.5 41.5 0 0 0-2.25 3.76 57.47 57.47 0 0 0 2.08 5.6 35.93 35.93 0 0 0 4.27 1.24c.12 2 .45 3.92.51 5.91-.58.18-4.87 2.23-4.88 2.31zM59.23 60.26a.53.53 0 0 0-.59-.49l-2.79.36a.53.53 0 0 0-.46.56l.22 2.76a.52.52 0 0 0 .58.48l2.75-.31a.53.53 0 0 0 .46-.56zm13.26 2.04 2.34.52a.66.66 0 0 0 .8-.54l.26-1.6a.66.66 0 0 0-.54-.76l-2.28-.43a.68.68 0 0 0-.78.53L72 61.51a.68.68 0 0 0 .49.79z"></path><path d="M82.43 173.26s7.35-66.81.72-92.83c0-6-.35-14.33-.5-16.29 6.08.86 12.81-2.23 17.26-6.14s7.85-9.43 10.67-14.66a39.72 39.72 0 0 0 2.63-5.46c0-.08-.14-.35-.16-.38a2.79 2.79 0 0 0 1.14-.09 13.46 13.46 0 0 0 3.18 2.16l-.07.14a1.19 1.19 0 0 0 .45 1.51l10.72 6.67a1.21 1.21 0 0 0 1.11.07L142.87 42a1.2 1.2 0 0 1 1.58.63l.27.64 2-.72-1-2.83s-.52-1.28-2.37-.73c-1.35.41-3 .85-3.74 1.06a1.22 1.22 0 0 1-.88-.1l-16.09-8.8a1.19 1.19 0 0 0-1.65.54l-.12.26c-.46-.36-2.73-2-3.28-1.88-.37.08-4.25 5.54-3.64 7v.07a4.16 4.16 0 0 1-1.11.13 13.79 13.79 0 0 0-2-2.41c.31-1.58.41-3.39 2.55-3.16.85.09 2 .26 1.86 1.09s-1 .88-1.6.78c-.14 0-.2.17-.06.21a1.41 1.41 0 0 0 1.83-.91c.26-.64 0-.88-.6-1.13a3.35 3.35 0 0 0-3.18.06c-.89.67-1 2.92-1 2.92a4.86 4.86 0 0 0-1.21-.77 66.94 66.94 0 0 0-10.12 5 46.23 46.23 0 0 0-8.87 6.53c-.06 0-6.86-.63-12.13-1a.85.85 0 0 0-.37-.3s-2.42-.27-3-.27a.81.81 0 0 0-.69.3h-1.29c1-2.91.34-7.3.34-7.3a3.76 3.76 0 0 0-.44-1.07 19.81 19.81 0 0 0 .29-10 32.18 32.18 0 0 0 3.93-1.27 1.67 1.67 0 0 0 1.18-1.2c.33-1.58-1.38-2.47-2.68-2.66a7.81 7.81 0 0 0-3.69.51c-1-2-2.07-3.86-4.44-4.23-2.71-.44-5.84.47-8.3 1.52-2.15.84-4.15 2.03-5.28 4.19-2.31 4.52-.38 12.05 3.31 14.32a57.72 57.72 0 0 0 .71 6.31l-3.68 1.3a1.92 1.92 0 0 0-1.08.15l-3 1.25a.35.35 0 0 0-.2.24.33.33 0 0 0 0 .22 56 56 0 0 0-8.16 5.32C31 60.1 29.53 65.39 25.15 77.6c-1.81 5.06-2.39 16.61-2.53 20.18a12.68 12.68 0 0 0-2.54-2.41 21.54 21.54 0 0 0-.08-3.68 1.25 1.25 0 0 0 .55 0 7.59 7.59 0 0 0-.05-2.21h-2.19v2.35c0 .01.54.1.58.11a17.79 17.79 0 0 0 0 3 1.7 1.7 0 0 0-1.81 2.35 12.59 12.59 0 0 1-4.55 5.71l-.53-2.34a5 5 0 0 0 2.39-2 4.62 4.62 0 0 0-.47-2.48c-.39-.85-.7-1.4-1.66-1.3a8.07 8.07 0 0 0-2.74 1.08 1.2 1.2 0 0 0-1.67.86 5.55 5.55 0 0 0-2.6 1.69 4.35 4.35 0 0 0 .21 3.24c.74 1.49 3.33.7 4.87-.07l.81 2.21c-.42.23-1.37.74-1.37.77 0 2 .29 12.22.31 12.24 2.12 2.13 12.79 11.56 12.83 11.56 2.53-.16 12.78-2.47 15.4-3 .09 0 .33-7.73.12-11.5 0-.08-.15-.18-.2-.19-1.31-.26-2.43-.43-3.2-1.31a34.63 34.63 0 0 0 2.77-4.79 2.67 2.67 0 0 0-.19-2.9c-1.63-1.72-3.4 1.53-4 2.84-.11-.79-.17-1.71-1-2 0-.26.42-.43.37-.68-.12-.62-.45-.42.25-.89a.15.15 0 0 0 .05-.2.71.71 0 0 1 .33-1 .13.13 0 0 0 0-.18.79.79 0 0 1 .37-1.09.12.12 0 0 0 0-.17c-.24-.36-.15-.44.15-.78 0 0 .08-.27 0-.28h-1.18a.13.13 0 0 0-.11.06c-.56 1.17-1.22 2.32-1.72 3.51a6.87 6.87 0 0 0-1-1.11 7.34 7.34 0 0 0-.24-2.26c4.77-6.34 8.55-13.13 10.42-20.89l.77-.58a32.65 32.65 0 0 0 .41 5c-.36 1.48-4 17.31 2.18 41.28a16.62 16.62 0 0 1 .48 5.35c-.35 2.15-1 41.48-1 41.48s1.27.38 3.22.84c.47 5.42-1.16 8.87.61 9.69 0 0 7.6 1.33 10.61 0 0 0 1.45-1.14 0-2a15 15 0 0 1-4-3 27.56 27.56 0 0 0 .15-3.39c1 .11 2.06.2 3.09.24 0 0 11.13-26.32 10.12-63.53a35.14 35.14 0 0 0 4.75-2.59c.46-.36.92-.3.48.31s-4.3 2.7-4.3 2.7.46 24.76-2 31.43L69 173h2.17c1 7.1-1 7.31.77 8.13 0 0 7.59 1.33 10.6 0 0 0 1.45-1.15 0-2a15.57 15.57 0 0 1-4-3c.16-1 .27-2 .37-3zm35.32-142.55c.37-.07 2.51 1.51 2.91 1.84l-3 6.41a8 8 0 0 1-2.75-1.59c-.06-.06-.11-.13-.16-.19a3 3 0 0 0 .9-.58 1.53 1.53 0 0 0 1.36-.23.65.65 0 0 0 .16-.83c.57-.12 1.27-.62 1-1.09a1 1 0 0 0 .33-.15c1.13-.8-.89-2.41-2-2a6.89 6.89 0 0 1 1.25-1.59zm0 2c.41.28 1.12.92.55 1.41-.39.33-1 .11-1.37-.12a1.38 1.38 0 0 1-.66-.82c-.17-.96 1.04-.79 1.5-.48zm-1.71.62a2.08 2.08 0 0 0 1.9 1.16c-.15.79-1.22 1-1.84.69a1.18 1.18 0 0 1-.79-1 1 1 0 0 1 .75-.86zm-.87 1.19a1.61 1.61 0 0 0 1.83 1.04.64.64 0 0 1-.1.55 1.38 1.38 0 0 1-2.09-.4c-.27-.5-.06-.87.38-1.2zm-.65 1.05a1.88 1.88 0 0 0 .88 1 2 2 0 0 1-.82.44 1.71 1.71 0 0 1-.04-1.45zm-41.9-.17a2 2 0 0 0-1.88-.71c-2.11.25-3.35.91-3.73 1.88s-3.7-.19-3.6-3 .45-3 .45-3 1-.46.71-2.29c-.23-1.32-.32-2.16-.36-2.54 2.79-.64 6.17-1.67 8.72 0 .4 4.36.65 4.82-.31 9.66zm-2 2c-.48.87-1.84.34-2-.52 0-.14.2-.19.26-.07a.91.91 0 0 0 1.47.37c.17-.18.35.02.26.17zm6.43-15.9c.86.65 1.25 1.81.09 2.55a5.9 5.9 0 0 1-1.14.45l-2.69 1c-.08 0-.08.05-.15 0-1.08-1-2.65-1-4-.92a18.58 18.58 0 0 0-5.58 1.11 68.14 68.14 0 0 1 8-4c1.5-.6 3.94-1.32 5.47-.19zm-23.56 8.15c-.24-2.28-.44-4.45.57-6.62s3.08-3.37 5.24-4.28a17.76 17.76 0 0 1 7-1.53c2.81 0 4.14 1.74 5.26 4.07-.76.29-1.51.64-2.21 1A39.19 39.19 0 0 0 62.43 26a76.34 76.34 0 0 0-8.94 3.65zm2.87 1.18c.59-2.13 2.83-1.5 3.27-1.2 0 0 1.39.8.71 3.6s-1.45 2.62-.69 4.39 3.44 7.07 8.93 8.76a6.35 6.35 0 0 1-3.17 1.81c-1.94.47-4.22.42-5.62-1.17-1.82-2.08-1.78-5.4-2.37-10l.63-2.69s-2.28-1.33-1.69-3.5zM18.42 91.67a12.4 12.4 0 0 0 0-2.11 11 11 0 0 0 1.9 0c0 .33 0 1.64.05 2a3.32 3.32 0 0 0-.58 0c-.06 0 0 2.54.05 3.72a3.32 3.32 0 0 0-.79-.33c.06-1 0-3.19-.05-3.2a1.09 1.09 0 0 0-.58-.08zm-1 4.43c1-2.6 4.22 1 5.2 2v.72a3.85 3.85 0 0 0 .42.65 3.3 3.3 0 0 0-1.16 1.84c-3.15-2.64-5.16-3.45-4.47-5.21zm9.82 9.22a8.59 8.59 0 0 0 2.1 1.91c-.46 1-.45 2.33-1 4.66-.27 1.21-1.71 2.29-2.54 2.83a25.52 25.52 0 0 0-1.32-2.29c1.55-2 .28-5.27-2.09-5.92-.05 0-.85 1.52-.85 1.52s1.91 2.19.41 3.54a2.46 2.46 0 0 1-2.71 0c-.05 0-.27.25-.32.35 0-.42-.05-.84-.09-1.24a2 2 0 0 0 .92-.47 2.93 2.93 0 0 0 .71-2.14c.11-1.44-.16-7.55-.16-7.55l1.42 1a.07.07 0 0 0 .06 0 2.32 2.32 0 0 0 1.22 2.57 2 2 0 0 0 1.73 1.08 3 3 0 0 0 .58.45 1.53 1.53 0 0 0 1.92-.3zm-4.41 8.36a4.26 4.26 0 0 1-2.32-.07A4.85 4.85 0 0 1 19 112.4a3 3 0 0 0 .26-.59 2.54 2.54 0 0 0 3.5-.62 2.32 2.32 0 0 0-.47-3.43c0-.39.25-.79.5-.77.77.08 1.52 1.22 1.76 1.89a3.74 3.74 0 0 1-.37 3.55 13.85 13.85 0 0 0 1.4 2.48c-.39.28-.81.54-1.24.79a11.71 11.71 0 0 0-1.52-2.02zm.79 2.44a2.08 2.08 0 0 1-.42.2c-.79-.61-1.57-1.22-2.34-1.85a3.08 3.08 0 0 0 1.61 0zm-5.62-5.5a1.66 1.66 0 0 0 .7.1 7 7 0 0 0 0 1.94l-.54-.48a6 6 0 0 0-.16-1.56zm-1.13-1.78s-.14-5.13 0-5.78c.5-1.9 2.7-1.64 3.18.08a13.06 13.06 0 0 1 .22 4.23c-.05.95.06 2.21-.9 2.81a1.73 1.73 0 0 1-2.55-1.34zm1 3.06c-.62-.56-2.61-2.54-2.62-2.58-.12-.82-.71-3.95.53-4.45l.76-.08c0 1.34.17 4 .17 4.07a2.09 2.09 0 0 0 1 1.62 6.78 6.78 0 0 0 .11 1.42zm-.67-14.4a11 11 0 0 0 1.52 1.77l.08 2.1a1.7 1.7 0 0 0-1.36.32c-1 .65-.9 1.85-.9 3-.65-.09-1.33 0-1.54.69a9.35 9.35 0 0 0 0 3.87l-1-.92-1.43-5.09c2.14-1.42 4.1-3.43 4.58-5.74zm-7.68 4.23a5 5 0 0 1-2.64.56c-1.24-.28-1.78-1.94-1.52-3.06.22-1 1.36-1.65 2.51-2.2 0 .14 1.72.4 1.84-.82 0 0 2.54-1.59 3.47-.92a3.9 3.9 0 0 1 1 3.53 10.83 10.83 0 0 1-2.29 1.63 14.74 14.74 0 0 1-2.42 1.28zm1.67 2.27.82 2.23a10.8 10.8 0 0 0-1.93-1.71c.36-.11.73-.29 1.11-.52zm11.64 24.14c-2.29-2.05-12.59-11.41-12.59-11.42v-6.26a38.74 38.74 0 0 0-.3-5.8c2.25 1.9 8.17 8.52 13 11.75a62.18 62.18 0 0 0-.11 11.77zM36.1 104.6c1.36-.49 1.84 1 1.7 2.05s-2.44 4.69-2.91 5.55c-.8-1-1-3.07-1.28-4.42 1.04-1.56 1.65-2.88 2.49-3.18zm-3.46 1.57c.57.47.55 1.06.66 1.77a20.59 20.59 0 0 0 .81 3.64c.65 1.76 2.24 2.4 4.07 2.34-.43 3.7 0 7.52-.08 11.24-2.46.22-12.52 2.53-15.13 3 .06-1.94.22-9.76.25-11.71a11.86 11.86 0 0 0 4.78-3.31c1.48-1.75.45-4.46 1.93-6.17.65-.71 1.87-1.47 2.71-.8zm.28-5.5c.25-.25.66-.2 1-.19a2.31 2.31 0 0 0-.44.39.11.11 0 0 0 0 .16c.36.42-.55.7-.47.93s.26.48.06.76-.38.2-.45.4.18.51.16.67-.34.31-.49.4a.17.17 0 0 0-.06.22c.3.42 0 .7 0 1-.3-.46-.71-1.09-1-1.51.39-.67 1.43-2.97 1.69-3.23zm-2.13 3.15c.39.48.86 1.16 1.23 1.69a3.22 3.22 0 0 0-1.14.33 3 3 0 0 0-1.45 1.2c-.71-.56-2.06-1.23-2.18-2.34a2.33 2.33 0 0 1 .68-1.7c1-1.23 2.62.51 2.86.82zm-.89-1.26-.11-.06s-1.64-1.12-2.64 1.06a1.81 1.81 0 0 0 0 1.52 1.51 1.51 0 0 1-1.87.19c-.52-.43-.35-1.53-.46-2.16 0-.06-.1 0-.1 0a4.74 4.74 0 0 0 0 1.76 2.29 2.29 0 0 1-1.26-.72c-.35-.53-.18-1.33-.19-1.93a.07.07 0 0 0-.13 0 2.53 2.53 0 0 0-.16 1.58c-1.49-1-1-2.87.13-4.19 1.58 1.75 4.52 1.84 6.6.92a4.75 4.75 0 0 1 .19 2.03zm13.72 2.73a6.68 6.68 0 0 1 0-2.85c0-.14.21-.09.22 0a23.48 23.48 0 0 1 .09 2.78.15.15 0 0 1-.31.07zm.61 6.74a.11.11 0 0 1-.2 0 10.06 10.06 0 0 1-.14-2.67.15.15 0 0 1 .3 0 18 18 0 0 1 .04 2.64zm.15-13.83c0 .18-.25.13-.3 0a6.74 6.74 0 0 1 0-3.28c0-.17.28-.12.28 0-.04.61.09 2.78.02 3.28zM44 92.3a20.48 20.48 0 0 1 0-2.83.12.12 0 0 1 .23 0 8.11 8.11 0 0 1 .06 2.9c-.05.08-.23.05-.29-.07zm1 25.16a12.91 12.91 0 0 1 .81 2.56c0 .17-.25.23-.32.09a12.74 12.74 0 0 1-.79-2.57c-.06-.2.23-.27.3-.08zm.43 52.88a.14.14 0 0 1-.26 0c-.16-.9-.08-1.83-.19-2.74 0-.18.28-.21.32 0a6 6 0 0 1 .13 2.74zm.2-5.6c0 .16-.26.21-.3 0a9.58 9.58 0 0 1-.1-3.25.16.16 0 0 1 .31 0 21.52 21.52 0 0 1 .09 3.25zm.18-8.23a.17.17 0 0 1-.33 0 7.55 7.55 0 0 1 0-2.07.18.18 0 0 1 .35 0 7.55 7.55 0 0 1-.02 2.07zm.26-5.48a.18.18 0 0 1-.35 0 10.29 10.29 0 0 1 0-2.66.21.21 0 0 1 .41 0 10.29 10.29 0 0 1-.06 2.63zm.11-6.76a.12.12 0 0 1-.23 0 8.11 8.11 0 0 1-.05-2.65.17.17 0 0 1 .33 0 8.11 8.11 0 0 1-.05 2.65zm.22-8.9a12.67 12.67 0 0 1 .26-2.11c0-.2.33-.21.32 0a7.1 7.1 0 0 1-.25 2.16.17.17 0 0 1-.33-.05zm.36-11.28a4.14 4.14 0 0 1 .88 2.62.12.12 0 0 1-.22 0c-.19-.36-.69-2.06-.92-2.5a.15.15 0 0 1 .26-.12zm6.41 53.51c-3.15 2.2-5.53-.28-6.11-.81-.17-1.27-.34-2.53-.43-3.81a63.41 63.41 0 0 0 6.8 1.22c-.05 1.14-.17 2.27-.26 3.4zM55.18 65s1.94 12.6-7.6 19c0 0-3.53 2.48-5.52.58-.25-2.18-.56-5-.8-5.75a27.41 27.41 0 0 0 8.62-11.6c0-.06-.12-.13-.15-.08A32.57 32.57 0 0 1 40 79.39c-.08.07-2.42 7.63-4.21 11.13a108 108 0 0 1-6.08 9.84s-4.83 1.46-6.77-1.49c0 0 .43-12.11 1.91-18.15a76 76 0 0 1 6.24-16.33c3.71-7.11 11.59-13.65 19-17.62.84 1.16 2.72 4.47 4.58 12.41l4.33-.54S57.52 48.07 55 45a1 1 0 0 0-.22-.17c1.13-.35 2.33-.81 3.22-1.18.35 1.75 1 3.81 2.74 4.57 4.45 2 8.36-1.71 8.41-1.7 2.05.53 3.18-.51 3.79-2.08l1.29.17-1.97 14.07 4 .69S78.35 46.24 78.5 45c4.57.39 10.27.77 12.12.87.09 0 5.68-4.56 8.79-6.47s10.07-5 10.09-5a15 15 0 0 1 3.35 3.37 51.42 51.42 0 0 1-3 6c-6.64 11.92-13.7 19.89-27.22 20.16-.13-1.56-.3-3.11-.53-4.65 0-.13-.23-.1-.22 0 .17 3.32.52 14.27.72 21.18a1.49 1.49 0 0 1-2.33-.67c-1-2-4.11-13.8-4.43-15.79L71 63l.37-1.68-10.57.19v1.68s.19 1-1.05 1.24a21.23 21.23 0 0 1-4.57.57zm12.38 29.06a1.67 1.67 0 0 1-2 .06l-5.91-4.28a1.7 1.7 0 0 1-.69-1.27l-.45-9.34a1.66 1.66 0 0 1 1.61-1.74L72 77.14a1.66 1.66 0 0 1 1.71 1.57l.5 9.05a1.66 1.66 0 0 1-.62 1.39zm10.55 82.13c-3.26 2.45-5.66-.44-6.19-.93-.08-.74-.18-1.49-.32-2.21l7 .14c-.18.99-.36 2-.49 3z"></path><path d="M59.23 82a1.42 1.42 0 0 0 0-1.09.11.11 0 0 0-.22 0 1.42 1.42 0 0 0 0 1.09.1.1 0 0 0 .22 0zm.21 2.54a10 10 0 0 0-.1-1.06.11.11 0 0 0-.22 0 1.34 1.34 0 0 0 .05 1.11c.07.07.25.09.27-.05zm.14 3c.05-.51-.07-1 0-1.52 0-.18-.25-.17-.27 0a3.09 3.09 0 0 0 .09 1.57c.01.12.16.04.18-.05zm.14 1.31c-.14-.11-.3.11-.18.23s.66.75.81.84a.14.14 0 0 0 .21-.16 4 4 0 0 0-.84-.91zm2.21 1.85a.12.12 0 0 0-.06.22 9.26 9.26 0 0 0 1 .53.15.15 0 0 0 .17-.21 1.35 1.35 0 0 0-1.11-.54zm2.58 1.54c-.12-.07-.27.12-.15.21a3.65 3.65 0 0 0 1.16.78c.09 0 .21-.09.14-.18a3.92 3.92 0 0 0-1.15-.81zm3.15.38a8.73 8.73 0 0 0-1 .84c-.11.12 0 .27.17.21a2.37 2.37 0 0 0 1-.85.15.15 0 0 0-.17-.2zM70 91.06a4 4 0 0 1-.86.48.14.14 0 0 0 0 .27c.22 0 1-.43 1-.62s-.09-.19-.14-.13zM72.06 89a12.14 12.14 0 0 0-1 .88c-.08.08 0 .24.09.23.26 0 1.09-.74 1.11-1a.13.13 0 0 0-.2-.11zm1.23-1.41c-.05.15-.25.76-.32.9a.13.13 0 0 0 .21.16 1 1 0 0 0 .3-1.09c-.04-.08-.16-.04-.19.03zm.15-1.71a2.39 2.39 0 0 0-.1-1.42c0-.1-.21-.12-.23 0a2.35 2.35 0 0 0 .12 1.44.11.11 0 0 0 .21-.02zm-.86-4.34a3.43 3.43 0 0 0 .14 1.15.11.11 0 0 0 .19 0 3.32 3.32 0 0 0-.07-1.13c-.02-.18-.27-.19-.26-.02zm.14-1.39a7.37 7.37 0 0 0-.07-1.23c0-.19-.32-.2-.31 0a3.53 3.53 0 0 0 .1 1.26.15.15 0 0 0 .28-.03zm-1.46-2a2.16 2.16 0 0 0-1 0 .13.13 0 0 0 0 .26 2 2 0 0 0 1 0 .11.11 0 0 0 0-.26zm-2.95-.08a2.59 2.59 0 0 0-1.62.12c-.2 0-.11.35.09.3a13.27 13.27 0 0 0 1.53-.24.11.11 0 0 0 0-.18zm-3.31.27a.11.11 0 0 0 0-.19 4 4 0 0 0-1 0c-.17 0-.21.26 0 .29a1.22 1.22 0 0 0 1-.1zm-3-.08a8.28 8.28 0 0 0-1.22 0 .16.16 0 0 0 0 .31 6.21 6.21 0 0 0 1.22 0 .16.16 0 0 0 0-.31zm-2.72 1.17a.82.82 0 0 1 .18-.62.12.12 0 0 0-.15-.19.61.61 0 0 0-.27.87c.07.1.25.07.24-.06zm7.87-50.37a3.25 3.25 0 0 0 .25 1.52.18.18 0 0 0 .3-.08 13.07 13.07 0 0 0-.2-1.44.18.18 0 0 0-.35 0zm4.26.09c-.33-.18-.25 1.17-.07 1.36a.19.19 0 0 0 .26 0 1.66 1.66 0 0 0-.19-1.36zm-3.74-2.56a2.33 2.33 0 0 0-1.75 1.77.13.13 0 0 0 .23.09c.28-.24.66-1.23 1.63-1.6.15-.05.05-.29-.11-.26zm2.71.48a5.25 5.25 0 0 1 .87.59.16.16 0 0 0 .27-.16 2.58 2.58 0 0 0-1.09-.77.17.17 0 0 0-.05.34zM70 31.42a.09.09 0 0 0-.12.13A15.12 15.12 0 0 0 71.6 33c-.08.4-.42.62-.5 1a.14.14 0 0 0 .17.17 1.38 1.38 0 0 0 .73-1.43c0-.11-1.58-1-2-1.32zM6.57 98.1c-.08-.06-.17.07-.11.14 1.75 2 1.15 3 .92 3.66a.1.1 0 0 0 .17.1c.93-1-.04-3.19-.98-3.9zm12.9 11.71a23.14 23.14 0 0 0-.46-7c0-.13-.22-.08-.2.05a59.56 59.56 0 0 1 .41 6.94.13.13 0 0 0 .25.01zM17.75 103c0-.12-.17-.11-.19 0a16.33 16.33 0 0 0 .33 6c0 .13.26.1.24 0a37.51 37.51 0 0 1-.38-6zm18.97 3.14c-.9 1.34-1.67 2.77-2.55 4.12-.05.09.08.16.14.08a32.32 32.32 0 0 0 2.52-4.13.07.07 0 1 0-.11-.07z"></path></g></g></svg>