<?xml version="1.0" encoding="UTF-8"?>
<svg xmlns="http://www.w3.org/2000/svg" xmlns:xlink="http://www.w3.org/1999/xlink" width="375pt" height="374.999991pt" viewBox="0 0 375 374.999991" version="1.2">
<g id="surface1">
<path style=" stroke:none;fill-rule:nonzero;fill:rgb(100%,34.118652%,13.328552%);fill-opacity:1;" d="M 90.136719 304.109375 L 186.53125 375 L 282.523438 304 L 186.5 232.28125 L 90.308594 303.84375 L 127.15625 187.703125 L 30.496094 116.609375 L 149.667969 115.90625 L 186.5625 0 L 66.890625 0 L 30.542969 116.375 C 9.417969 183.75 31.011719 260.21875 90.136719 304.109375 Z M 90.136719 304.109375 "/>
<path style=" stroke:none;fill-rule:nonzero;fill:rgb(100%,34.118652%,13.328552%);fill-opacity:1;" d="M 341.992188 116.375 L 246.078125 187.703125 L 282.617188 303.9375 L 282.710938 303.875 C 341.367188 259.96875 363.644531 183.75 342.304688 116.140625 L 342.257812 116.171875 L 305.457031 0 L 186.5625 0 L 223.367188 115.6875 Z M 341.992188 116.375 "/>
<path style=" stroke:none;fill-rule:nonzero;fill:rgb(0%,0%,0%);fill-opacity:1;" d="M 290.167969 304.109375 L 290.105469 303.9375 L 290.011719 304 Z M 290.167969 304.109375 "/>
</g>
</svg>
