<?xml version="1.0" encoding="UTF-8"?>
<svg xmlns="http://www.w3.org/2000/svg" xmlns:xlink="http://www.w3.org/1999/xlink" width="375pt" height="374.999991pt" viewBox="0 0 375 374.999991" version="1.2">
<g id="surface1">
<path style=" stroke:none;fill-rule:nonzero;fill:rgb(0%,0%,0%);fill-opacity:1;" d="M 101.859375 157.765625 L 101.875 157.765625 L 101.890625 157.75 Z M 101.859375 157.765625 "/>
<path style=" stroke:none;fill-rule:nonzero;fill:rgb(0%,0%,0%);fill-opacity:1;" d="M 101.25 168.625 C 104.53125 170.28125 107.84375 169.5 109.546875 166.640625 C 110.15625 165.703125 110.53125 164.5625 110.53125 163.328125 C 110.53125 159.953125 107.796875 157.203125 104.40625 157.203125 C 103.5 157.203125 102.65625 157.40625 101.875 157.75 C 97.09375 159.84375 96.71875 166.3125 101.25 168.625 Z M 101.25 168.625 "/>
<path style=" stroke:none;fill-rule:nonzero;fill:rgb(0%,0%,0%);fill-opacity:1;" d="M 44.03125 309.03125 C 50.96875 316.875 58.140625 324.046875 65.71875 330.75 L 65.984375 330.984375 C 94.625 354.96875 126.765625 368.984375 164.8125 374.140625 C 173.25 375.296875 201.75 375.296875 210.1875 374.140625 C 248.234375 368.96875 280.375 354.953125 309.015625 330.984375 C 316.859375 324.046875 324.03125 316.875 330.734375 309.296875 L 330.96875 309.03125 C 354.953125 280.390625 368.96875 248.25 374.125 210.203125 C 375.28125 201.765625 375.28125 173.265625 374.125 164.828125 C 368.953125 126.78125 354.9375 94.640625 330.96875 66 C 324.03125 58.15625 316.859375 50.984375 309.28125 44.28125 L 309.015625 44.0625 C 280.46875 20.171875 248 5.96875 210.46875 0.9375 C 206.40625 0.390625 200.515625 0.15625 189.578125 0.0625 C 187.40625 0.015625 184.84375 0 182.28125 0 C 179.078125 0 175.90625 0.046875 172.734375 0.125 C 171.859375 0.21875 169.046875 0.546875 166.515625 0.765625 C 130.453125 4.546875 94.9375 19.8125 65.984375 44.0625 C 58.140625 51 50.96875 58.171875 44.265625 65.75 L 44.03125 66.015625 C 20.046875 94.65625 6.03125 126.796875 0.875 164.84375 C -0.28125 173.28125 -0.28125 201.78125 0.875 210.21875 C 6.046875 248.25 20.0625 280.390625 44.03125 309.03125 Z M 342.234375 233.640625 C 342.328125 218.5625 342.5625 203.296875 342.65625 199.75 C 342.75 196.203125 342.84375 186.1875 342.890625 177.46875 C 342.890625 166.953125 343.03125 161.703125 343.359375 161.703125 C 343.640625 161.703125 344.609375 162.03125 345.53125 162.390625 L 345.515625 162.390625 L 347.171875 163.078125 L 346.84375 201.265625 C 346.46875 249.921875 346.421875 251.34375 344.671875 255.546875 C 341.8125 262.421875 341.953125 263.796875 342.234375 233.640625 Z M 323.078125 136.328125 C 323.3125 136.328125 324.375 136.65625 325.390625 137.0625 L 325.375 137.078125 C 327.03125 137.765625 327.21875 137.953125 327.21875 139.515625 C 327.3125 152.109375 327.03125 180.875 326.796875 182.078125 C 326.75 182.5 324.359375 182.546875 323.34375 182.171875 C 322.703125 181.9375 322.609375 179.453125 322.609375 159.109375 C 322.609375 144.53125 322.796875 136.328125 323.078125 136.328125 Z M 322.21875 273.03125 L 322.3125 253.25 L 324.015625 251.5 C 324.59375 250.84375 325.265625 250.28125 326.015625 249.8125 L 326.046875 249.796875 C 326.1875 249.796875 326.1875 258.46875 326.046875 269.03125 L 326.0625 269.015625 L 325.734375 288.296875 L 324.578125 290 C 321.953125 293.875 322.09375 294.609375 322.21875 273.03125 Z M 99.359375 333.46875 C 98.15625 332.78125 97.09375 331.71875 97.328125 331.4375 C 97.3125 329.609375 97.140625 327.84375 96.828125 326.125 L 96.859375 326.3125 C 96.53125 323.640625 96.125 319.296875 95.9375 316.625 C 95.75 313.953125 95.34375 309.0625 94.96875 305.78125 C 94.09375 297.71875 94.140625 296.78125 95.15625 296.78125 C 95.625 296.78125 96.21875 297.015625 96.546875 297.328125 L 96.546875 297.375 C 96.875 297.703125 97.09375 298.84375 97.09375 300 C 97.09375 301.203125 97.640625 307.421875 98.25 313.875 C 100 331.53125 100.140625 333.9375 99.359375 333.46875 Z M 110.25 255.765625 C 108.3125 255.765625 108.359375 255.90625 107.71875 247.78125 C 107.078125 239.53125 107.078125 239.625 108.3125 239.625 C 108.90625 239.625 109.703125 239.90625 110.109375 240.171875 L 110.109375 240.1875 C 110.609375 240.65625 110.9375 242.5 111.359375 247.46875 C 112.046875 256.46875 112.140625 255.765625 110.25 255.765625 Z M 117.25 342.796875 C 116.703125 342.375 116.328125 340.625 115.78125 335.375 C 114.8125 325.875 114.765625 326.25 116.5625 326.421875 C 117.90625 326.5625 118.078125 326.75 118.359375 328.40625 C 118.5 329.421875 118.78125 333.203125 118.953125 336.796875 C 119.28125 343.71875 119.140625 344.21875 117.25 342.796875 Z M 134 309.046875 C 133.453125 309.234375 132.796875 309.1875 132.609375 308.953125 C 132.28125 308.625 131.265625 298.390625 130.03125 282.625 L 129.703125 278.84375 L 131.125 278.84375 C 132.46875 278.84375 132.546875 278.9375 132.78125 281.234375 L 132.796875 281.234375 C 133.125 284.09375 134.265625 297.796875 134.734375 304.25 C 135.015625 308.578125 135.015625 308.71875 134 309.046875 Z M 148.59375 282.53125 C 147.71875 282.53125 147.625 281.84375 146.609375 268.703125 C 145.921875 258.5 145.375 251.921875 144.78125 245.359375 L 145.09375 249.65625 C 144.671875 244.625 144.40625 240.4375 144.546875 240.34375 C 145.046875 239.796875 146.390625 240.203125 146.625 240.890625 L 146.625 240.875 C 146.71875 241.34375 146.953125 244.109375 147.125 247.015625 C 147.265625 249.921875 147.671875 256.46875 148.046875 261.546875 C 149.34375 280.171875 149.390625 282.53125 148.59375 282.53125 Z M 282.859375 329.28125 C 282.390625 329.78125 281.984375 330.109375 281.84375 329.96875 C 281.515625 329.59375 281.0625 271.171875 281.421875 270.84375 C 281.609375 270.65625 282.0625 270.5625 282.484375 270.609375 C 283.078125 270.75 283.21875 274.015625 283.40625 299.5625 L 283.40625 299.578125 C 283.640625 326.375 283.59375 328.453125 282.859375 329.28125 Z M 302.1875 59.703125 C 302.96875 60.25 303.84375 61.046875 304.21875 61.453125 L 304.203125 61.453125 C 304.75 62.09375 304.84375 72.203125 304.984375 127.90625 C 305.125 191.875 305.125 193.53125 304.296875 193.53125 C 303.6875 193.484375 303.140625 193.265625 302.671875 192.9375 L 302.6875 192.9375 C 302 192.4375 301.90625 186.84375 301.671875 132.203125 C 301.578125 107.234375 301.375 83.796875 301.078125 60.359375 L 301.125 65.375 L 300.84375 58.734375 Z M 284.78125 176 L 283.484375 176 C 280.671875 176 280.71875 176.6875 280.53125 150.5 L 280.390625 126.65625 L 281.859375 126.65625 C 282.640625 126.65625 283.65625 126.984375 284.03125 127.390625 L 284.046875 127.390625 C 284.6875 128.03125 284.78125 130.890625 284.78125 152.0625 Z M 280.125 52.03125 C 280.3125 51.34375 280.3125 51.34375 282.203125 52.125 L 282.203125 52.140625 L 283.765625 52.78125 L 284.09375 58.953125 C 284.234375 62.3125 284.328125 69.609375 284.234375 75.09375 L 284.09375 85.140625 L 282.15625 84.171875 L 280.21875 83.25 L 280.078125 67.9375 C 279.984375 59.5 280.03125 52.34375 280.125 52.03125 Z M 259.890625 69.96875 L 261.1875 70.25 C 261.875 70.4375 262.625 70.71875 262.84375 70.9375 L 262.84375 70.921875 C 263.078125 71.109375 263.3125 73.734375 263.34375 76.734375 C 263.578125 86.921875 263.625 149.40625 263.390625 149.59375 C 263.296875 149.6875 262.46875 149.453125 261.546875 149.09375 L 259.890625 148.40625 Z M 241.625 114.359375 C 241.71875 118.515625 241.203125 119.203125 238.71875 118.328125 L 237.296875 117.828125 L 237.296875 113.859375 C 237.296875 111.640625 237.15625 105.234375 236.96875 99.5625 L 236.6875 89.328125 L 237.75 89.328125 C 238.625 89.4375 239.421875 89.71875 240.140625 90.125 L 240.109375 90.109375 L 240.09375 90.09375 L 241.4375 90.875 L 241.484375 100.84375 C 241.53125 106.28125 241.625 112.375 241.625 114.359375 Z M 239.453125 43.671875 C 240.75 44.125 240.875 44.34375 241.15625 46.984375 C 241.625 51.59375 241.484375 73.640625 240.96875 73.640625 C 239.625 73.640625 236.859375 72.078125 236.640625 71.203125 C 236.453125 67.734375 236.34375 63.671875 236.34375 59.59375 C 236.34375 58.5625 236.34375 57.546875 236.359375 56.53125 C 236.359375 41.703125 236.1875 42.5625 239.453125 43.671875 Z M 214.046875 18.59375 C 214.234375 18.09375 214.734375 18.046875 216.671875 18.359375 C 218.015625 18.640625 219.109375 18.859375 219.15625 18.90625 L 219.171875 18.9375 C 219.21875 18.984375 219.359375 32.90625 219.5 49.875 C 219.6875 66.890625 219.921875 82.15625 220.046875 83.8125 C 220.1875 85.515625 220.140625 87 219.90625 87.09375 C 219.53125 87.171875 219.109375 87.203125 218.65625 87.203125 C 218.203125 87.203125 217.78125 87.15625 217.375 87.078125 L 217.421875 87.078125 L 215.296875 86.890625 L 214.96875 73.46875 L 214.46875 55.15625 C 214.09375 47 213.78125 19.28125 214.046875 18.59375 Z M 193.015625 57.359375 L 195.375 57.640625 C 196.3125 57.734375 197.171875 57.921875 198 58.203125 C 198.28125 58.5625 198.921875 80.84375 198.96875 92.171875 L 199.015625 99 L 196.84375 98.671875 C 195.96875 98.59375 195.171875 98.484375 194.40625 98.328125 L 194.53125 98.34375 C 194.390625 98.25 193.015625 64.078125 193.015625 60.765625 Z M 183.109375 135.640625 C 183.125 135.640625 183.125 135.640625 183.140625 135.640625 L 183.078125 135.640625 Z M 171.21875 16.75 C 171.90625 16.65625 173.0625 16.515625 173.796875 16.46875 L 175.046875 16.421875 L 175.046875 20.015625 L 175.03125 20.046875 C 175.03125 25.4375 175.40625 37.15625 175.90625 48.265625 C 176.1875 53.703125 176.5 61.5 176.640625 65.5625 C 177.140625 79.953125 178.671875 117.71875 178.90625 121.078125 L 179.140625 124.4375 L 177.0625 124.203125 C 176.203125 124.15625 175.40625 123.984375 174.671875 123.703125 C 174.3125 121.59375 174.078125 119.140625 174.03125 116.640625 L 174.03125 116.59375 C 173.5 110.703125 172.125 79.578125 170.875 48.40625 L 170.203125 27.171875 L 169.921875 16.9375 Z M 149.953125 44.21875 C 150.796875 43.921875 151.78125 43.734375 152.796875 43.71875 L 152.8125 43.71875 C 154.28125 43.671875 154.28125 43.671875 154.28125 45.84375 L 154.28125 45.828125 C 154.28125 47.078125 154.609375 53.9375 154.96875 61.1875 L 155.9375 81.578125 C 156.265625 89.609375 156.359375 89.328125 153.265625 89.515625 C 151.75 89.5625 151.75 89.5625 151.65625 87.25 C 151.5625 85.953125 151.328125 81.953125 151.0625 78.25 C 150.828125 74.5625 150.28125 66.578125 149.90625 60.5 C 149.53125 54.421875 149.078125 48.375 148.9375 47.078125 C 148.65625 44.765625 148.703125 44.6875 149.953125 44.21875 Z M 131.03125 72.625 C 132.109375 72 133.375 71.5625 134.71875 71.375 L 134.765625 71.375 C 135.046875 71.328125 135.40625 72.296875 135.546875 73.5 L 135.5625 73.5 C 135.703125 74.75 135.9375 77.5625 136.0625 79.859375 L 136.796875 91.296875 C 137.34375 99.40625 137.265625 99.921875 134.625 99.921875 C 133.234375 99.921875 133.0625 99.78125 132.875 98.40625 C 132.40625 95.6875 130.796875 73 131.03125 72.625 Z M 109.875 34.71875 C 111.34375 33.9375 112.1875 33.796875 112.5 34.390625 C 112.78125 34.8125 114.9375 60.21875 117.625 93.46875 C 118.5 104.765625 119.375 115.09375 119.515625 116.390625 C 119.75 118.75 119.703125 118.828125 118.21875 119.75 C 117.6875 120.109375 117.078125 120.421875 116.4375 120.65625 L 116.375 120.65625 C 116.234375 120.65625 115.953125 119.453125 115.828125 117.984375 C 115.1875 112 112.6875 83.046875 110.9375 62.109375 C 109.921875 49.796875 109 38.78125 108.859375 37.578125 C 108.625 35.546875 108.671875 35.359375 109.875 34.71875 Z M 152.1875 136.0625 C 157.25 135.1875 163.078125 134.6875 169.03125 134.6875 C 173.859375 134.6875 178.609375 135.03125 183.28125 135.671875 C 193.625 137.234375 202.671875 140.125 211.625 144.71875 C 217.4375 147.71875 220.203125 149.796875 226.65625 155.96875 C 236.25 165.140625 242.15625 173.171875 247.6875 184.515625 C 255.75 201.03125 258.890625 215.640625 262.859375 254.84375 C 264.65625 272.40625 267.015625 304.28125 267.515625 317.328125 C 267.65625 321.109375 267.984375 327.328125 268.25 331.15625 C 268.75 339.265625 269.359375 338.171875 262.203125 341.625 C 252.28125 346.421875 242.75 349.734375 230.15625 352.828125 C 214.75 356.609375 204.796875 357.8125 189.578125 357.859375 L 178.515625 357.90625 L 178.609375 352.609375 C 178.609375 349.703125 178.890625 342.921875 179.15625 337.625 C 180.546875 311.9375 180.265625 279.515625 178.46875 261.53125 C 177.453125 251.203125 175.46875 238.65625 174.359375 235.890625 C 174.125 235.296875 175.1875 234.78125 179.75 233.21875 C 188.09375 230.3125 195.34375 226.671875 196.4375 224.875 C 198.421875 221.46875 194.875 216.578125 190.34375 216.578125 C 189.5625 216.578125 187.203125 217.40625 185.046875 218.375 C 174.71875 223.125 154.015625 228.703125 142.0625 229.953125 C 139.078125 230.21875 135.609375 230.359375 132.109375 230.359375 C 125.234375 230.359375 118.5 229.765625 111.9375 228.671875 C 107.078125 227.765625 98.5 224.515625 91.328125 220.8125 C 82.984375 216.484375 77.859375 210.71875 76.34375 203.890625 C 75.515625 200.203125 75.75 192.828125 76.8125 188.671875 C 77.96875 184.109375 81.1875 177.46875 84.140625 173.59375 C 97.265625 156.296875 124.390625 141.3125 152.1875 136.0625 Z M 75.640625 91.703125 C 77.25 90.1875 77.4375 90.140625 77.765625 90.96875 C 77.953125 91.4375 78.734375 99.078125 79.515625 107.984375 L 79.53125 107.984375 L 82.578125 141.1875 L 84.140625 158.25 L 82.34375 160.03125 L 80.59375 161.828125 L 80.265625 158.1875 C 80.078125 156.15625 79.15625 146.75 78.1875 137.25 C 77.21875 127.75 75.828125 113.96875 75.140625 106.625 L 73.84375 93.34375 Z M 70.984375 220.015625 C 71.734375 220.796875 72.375 221.71875 72.84375 222.71875 L 72.875 222.78125 L 72.890625 222.796875 C 73.171875 223.953125 74.5 236.453125 74.5 237.96875 C 74.5 239.265625 72.84375 240.453125 72.109375 239.71875 C 71.875 239.484375 71.28125 235.5625 70.8125 231.046875 L 69.65625 220.484375 L 69.375 218.171875 Z M 65.890625 170.65625 C 66.671875 170.109375 67.5 169.734375 67.640625 169.828125 C 67.78125 169.921875 68.0625 171.765625 68.1875 173.890625 L 68.1875 173.875 C 68.46875 177.609375 68.375 177.984375 67.03125 180.9375 L 65.5625 184.078125 L 65.015625 179.46875 C 64.140625 172.09375 64.140625 171.765625 65.890625 170.65625 Z M 65.5625 298.109375 L 65.796875 300.09375 L 64.640625 299.359375 C 63.90625 298.9375 63.4375 298.171875 63.4375 297.28125 C 63.4375 297.21875 63.4375 297.171875 63.4375 297.109375 C 63.4375 294.203125 61.453125 275.0625 59.9375 263.359375 C 59.0625 256.71875 58.375 250.859375 58.375 250.3125 C 58.375 249.34375 59.484375 248.96875 59.9375 249.765625 L 59.9375 249.734375 C 60.21875 250.15625 61.96875 264.90625 64.140625 285.0625 C 64.78125 291.15625 65.4375 297 65.5625 298.109375 Z M 58.234375 76.125 C 58.375 76.21875 58.828125 80.328125 59.296875 85.25 L 59.28125 85.25 L 61.546875 107.984375 C 62.328125 115.59375 62.984375 122.046875 62.984375 122.328125 C 62.984375 122.875 59.4375 124.640625 59.0625 124.265625 C 57.953125 117.21875 56.234375 102.5 54.734375 87.71875 L 54.21875 81.375 C 54.21875 80.265625 57.765625 75.609375 58.234375 76.125 Z M 42.984375 96.78125 C 43.078125 96.921875 44 104.4375 45.015625 113.5625 L 44.984375 113.578125 C 46 122.65625 48.671875 146.828125 50.984375 167.25 C 53.296875 187.671875 55.453125 207.375 55.875 211.0625 C 56.25 214.734375 56.890625 220.3125 57.265625 223.5 C 57.90625 228.890625 57.90625 229.265625 57.171875 229.8125 C 56.0625 230.640625 55.609375 230.546875 55.609375 229.578125 C 55.609375 229.15625 55.1875 225.65625 54.6875 221.875 C 53.859375 215.5625 52.46875 204.859375 49.390625 180.828125 C 48.75 175.984375 47.5 166.34375 46.625 159.390625 C 48.734375 181.734375 46.6875 166.375 44.703125 151.015625 L 40.859375 114.53125 C 40.03125 108.265625 39.515625 102.671875 39.65625 102.078125 C 39.984375 100.828125 42.703125 96.5 42.984375 96.78125 Z M 37.6875 199.46875 C 38.9375 198.640625 39.34375 199.09375 39.671875 201.6875 L 39.6875 201.6875 C 40.109375 205.46875 43.328125 230.5625 44.984375 242.875 C 47.46875 261.921875 47.65625 264.640625 46.546875 263.484375 C 45.828125 260.15625 45.015625 255.3125 44.359375 250.40625 L 44.234375 249.234375 C 37.046875 199.515625 37.09375 199.84375 37.6875 199.46875 Z M 27.953125 126.515625 C 28.234375 125.375 28.6875 124.375 29.25 123.4375 C 29.4375 123.484375 30.125 127.96875 30.859375 133.421875 L 30.875 133.4375 L 33.734375 155.9375 C 34.609375 162.765625 35.71875 171.296875 36.21875 174.84375 L 37.09375 181.296875 L 36.125 182.125 C 35.578125 182.59375 35.015625 182.765625 34.828125 182.59375 C 34.640625 182.421875 34.28125 180.5625 34 178.53125 C 33.71875 176.5 32.015625 164.65625 30.171875 152.25 L 26.890625 129.65625 Z M 27.953125 126.515625 "/>
<path style=" stroke:none;fill-rule:nonzero;fill:rgb(0%,0%,0%);fill-opacity:1;" d="M 133.15625 174.140625 C 137.53125 176.765625 143.203125 173.3125 143.203125 168.046875 C 143.203125 162.96875 137.390625 159.5625 133.15625 162.140625 L 133.15625 162.15625 C 131.15625 163.421875 129.84375 165.640625 129.84375 168.15625 C 129.84375 170.671875 131.15625 172.875 133.125 174.125 Z M 133.15625 174.140625 "/>
</g>
</svg>
