<?xml version="1.0" encoding="UTF-8"?>
<svg xmlns="http://www.w3.org/2000/svg" xmlns:xlink="http://www.w3.org/1999/xlink" width="375pt" height="374.999991pt" viewBox="0 0 375 374.999991" version="1.2">
<defs>
<clipPath id="clip1">
  <path d="M 62.578125 249 L 188 249 L 188 375 L 62.578125 375 Z M 62.578125 249 "/>
</clipPath>
<clipPath id="clip2">
  <path d="M 62.578125 125 L 188 125 L 188 250 L 62.578125 250 Z M 62.578125 125 "/>
</clipPath>
<clipPath id="clip3">
  <path d="M 62.578125 0 L 188 0 L 188 126 L 62.578125 126 Z M 62.578125 0 "/>
</clipPath>
<clipPath id="clip4">
  <path d="M 187 0 L 312.234375 0 L 312.234375 126 L 187 126 Z M 187 0 "/>
</clipPath>
<clipPath id="clip5">
  <path d="M 187 125 L 312.234375 125 L 312.234375 250 L 187 250 Z M 187 125 "/>
</clipPath>
</defs>
<g id="surface1">
<g clip-path="url(#clip1)" clip-rule="nonzero">
<path style=" stroke:none;fill-rule:nonzero;fill:rgb(3.919983%,81.17981%,51.368713%);fill-opacity:1;" d="M 124.992188 374.882812 C 159.445312 374.882812 187.40625 346.898438 187.40625 312.421875 L 187.40625 249.960938 L 124.992188 249.960938 C 90.539062 249.960938 62.578125 277.945312 62.578125 312.421875 C 62.578125 346.898438 90.539062 374.882812 124.992188 374.882812 Z M 124.992188 374.882812 "/>
</g>
<g clip-path="url(#clip2)" clip-rule="nonzero">
<path style=" stroke:none;fill-rule:nonzero;fill:rgb(63.529968%,34.899902%,100%);fill-opacity:1;" d="M 62.578125 187.5 C 62.578125 153.023438 90.539062 125.039062 124.992188 125.039062 L 187.40625 125.039062 L 187.40625 249.960938 L 124.992188 249.960938 C 90.539062 249.960938 62.578125 221.976562 62.578125 187.5 Z M 62.578125 187.5 "/>
</g>
<g clip-path="url(#clip3)" clip-rule="nonzero">
<path style=" stroke:none;fill-rule:nonzero;fill:rgb(94.898987%,30.589294%,11.759949%);fill-opacity:1;" d="M 62.578125 62.578125 C 62.578125 28.101562 90.539062 0.117188 124.992188 0.117188 L 187.40625 0.117188 L 187.40625 125.039062 L 124.992188 125.039062 C 90.539062 125.039062 62.578125 97.054688 62.578125 62.578125 Z M 62.578125 62.578125 "/>
</g>
<g clip-path="url(#clip4)" clip-rule="nonzero">
<path style=" stroke:none;fill-rule:nonzero;fill:rgb(100%,44.709778%,38.42926%);fill-opacity:1;" d="M 187.40625 0.117188 L 249.820312 0.117188 C 284.273438 0.117188 312.234375 28.101562 312.234375 62.578125 C 312.234375 97.054688 284.273438 125.039062 249.820312 125.039062 L 187.40625 125.039062 Z M 187.40625 0.117188 "/>
</g>
<g clip-path="url(#clip5)" clip-rule="nonzero">
<path style=" stroke:none;fill-rule:nonzero;fill:rgb(10.198975%,73.728943%,99.609375%);fill-opacity:1;" d="M 312.234375 187.5 C 312.234375 221.976562 284.273438 249.960938 249.820312 249.960938 C 215.367188 249.960938 187.40625 221.976562 187.40625 187.5 C 187.40625 153.023438 215.367188 125.039062 249.820312 125.039062 C 284.273438 125.039062 312.234375 153.023438 312.234375 187.5 Z M 312.234375 187.5 "/>
</g>
</g>
</svg>
