<?xml version="1.0" encoding="UTF-8"?>
<svg xmlns="http://www.w3.org/2000/svg" xmlns:xlink="http://www.w3.org/1999/xlink" width="375pt" height="374.999991pt" viewBox="0 0 375 374.999991" version="1.2">
<defs>
<clipPath id="clip1">
  <path d="M 0 74.414062 L 375 74.414062 L 375 300.914062 L 0 300.914062 Z M 0 74.414062 "/>
</clipPath>
</defs>
<g id="surface1">
<g clip-path="url(#clip1)" clip-rule="nonzero">
<path style=" stroke:none;fill-rule:nonzero;fill:rgb(0%,0%,0%);fill-opacity:1;" d="M 88.515625 133.570312 L 159.222656 133.570312 L 159.222656 139.207031 L 94.996094 139.207031 L 94.996094 181.625 L 155.394531 181.625 L 155.394531 187.261719 L 94.996094 187.261719 L 94.996094 233.832031 L 159.957031 233.832031 L 159.957031 239.472656 L 88.515625 239.472656 Z M 165.554688 133.570312 L 173.070312 133.570312 L 206.359375 180.140625 L 240.386719 133.570312 L 286.667969 74.414062 L 210.628906 185.039062 L 249.816406 239.472656 L 242.003906 239.472656 L 206.359375 189.929688 L 170.566406 239.472656 L 162.90625 239.472656 L 202.378906 185.039062 Z M 252.613281 139.207031 L 252.613281 133.570312 L 333.191406 133.570312 L 333.191406 139.207031 L 296.066406 139.207031 L 296.066406 239.46875 L 289.589844 239.46875 L 289.589844 139.207031 Z M 0.0625 133.570312 L 8.164062 133.570312 L 119.878906 301.230469 L 73.714844 239.472656 L 6.839844 141.582031 L 6.546875 239.472656 L 0.0625 239.472656 Z M 332.53125 232.136719 C 331.214844 232.136719 330.21875 231.101562 330.21875 229.773438 C 330.21875 228.445312 331.214844 227.414062 332.53125 227.414062 C 333.871094 227.414062 334.851562 228.445312 334.851562 229.773438 C 334.851562 231.101562 333.871094 232.136719 332.53125 232.136719 Z M 338.902344 225.925781 L 342.371094 225.925781 C 342.414062 227.8125 343.792969 229.074219 345.804688 229.074219 C 348.0625 229.074219 349.335938 227.71875 349.335938 225.167969 L 349.335938 209.019531 L 352.871094 209.019531 L 352.871094 225.183594 C 352.871094 229.773438 350.222656 232.417969 345.84375 232.417969 C 341.726562 232.417969 338.902344 229.855469 338.902344 225.925781 Z M 357.492188 225.71875 L 360.992188 225.71875 C 361.285156 227.894531 363.398438 229.265625 366.445312 229.265625 C 369.28125 229.265625 371.359375 227.796875 371.359375 225.769531 C 371.359375 224.03125 370.035156 222.980469 367.023438 222.269531 L 364.09375 221.554688 C 359.980469 220.59375 358.105469 218.597656 358.105469 215.242188 C 358.105469 211.171875 361.414062 208.46875 366.378906 208.46875 C 371 208.46875 374.367188 211.171875 374.574219 215.019531 L 371.140625 215.019531 C 370.808594 212.914062 368.980469 211.597656 366.328125 211.597656 C 363.539062 211.597656 361.679688 212.949219 361.679688 215.007812 C 361.679688 216.636719 362.878906 217.570312 365.84375 218.265625 L 368.347656 218.882812 C 373.011719 219.976562 374.9375 221.878906 374.9375 225.308594 C 374.9375 229.675781 371.5625 232.417969 366.175781 232.417969 C 361.128906 232.417969 357.742188 229.808594 357.492188 225.71875 Z M 357.492188 225.71875 "/>
</g>
</g>
</svg>
