<?xml version="1.0" encoding="UTF-8"?>
<svg xmlns="http://www.w3.org/2000/svg" xmlns:xlink="http://www.w3.org/1999/xlink" width="375pt" height="374.999991pt" viewBox="0 0 375 374.999991" version="1.2">
<g id="surface1">
<path style=" stroke:none;fill-rule:nonzero;fill:rgb(0%,0%,0%);fill-opacity:1;" d="M 355.753906 233.339844 C 353.6875 227.09375 348.300781 222.746094 341.328125 221.695312 C 338.042969 221.214844 334.277344 221.414062 329.824219 222.339844 C 322.0625 223.9375 316.300781 224.558594 312.089844 224.679688 C 327.960938 197.839844 340.871094 167.238281 348.300781 138.4375 C 360.308594 91.859375 353.890625 70.644531 346.382812 61.046875 C 326.542969 35.644531 297.570312 21.996094 262.636719 21.578125 C 244.003906 21.351562 227.632812 25.035156 219.109375 27.6875 C 211.160156 26.28125 202.605469 25.5 193.648438 25.351562 C 176.839844 25.085938 161.984375 28.753906 149.304688 36.296875 C 142.277344 33.917969 131.003906 30.5625 117.984375 28.421875 C 87.363281 23.386719 62.679688 27.3125 44.628906 40.082031 C 22.769531 55.546875 12.636719 82.417969 14.511719 119.945312 C 15.105469 131.859375 21.761719 168.113281 32.238281 202.484375 C 38.261719 222.246094 44.683594 238.65625 51.324219 251.261719 C 60.746094 269.144531 70.824219 279.671875 82.140625 283.457031 C 88.480469 285.566406 100.007812 287.058594 112.125 276.945312 C 113.664062 278.800781 115.710938 280.652344 118.433594 282.371094 C 121.886719 284.558594 126.109375 286.34375 130.328125 287.394531 C 145.53125 291.207031 159.773438 290.253906 171.917969 284.921875 C 172 287.082031 172.054688 289.152344 172.105469 290.9375 C 172.1875 293.835938 172.269531 296.671875 172.375 299.328125 C 173.085938 317.28125 174.304688 331.242188 177.925781 341.019531 C 178.125 341.554688 178.394531 342.375 178.675781 343.234375 C 180.472656 348.765625 183.488281 358.027344 191.15625 365.28125 C 199.105469 372.785156 208.71875 375.082031 217.511719 375.082031 C 221.921875 375.082031 226.132812 374.503906 229.832031 373.710938 C 242.996094 370.890625 257.945312 366.582031 268.761719 351.15625 C 278.992188 336.574219 283.953125 314.621094 284.847656 280.007812 C 284.96875 279.027344 285.078125 278.101562 285.183594 277.203125 C 285.25 276.609375 285.320312 275.992188 285.398438 275.375 L 287.8125 275.589844 L 288.429688 275.632812 C 301.835938 276.25 318.230469 273.402344 328.296875 268.714844 C 336.261719 265.011719 361.757812 251.53125 355.753906 233.339844 "/>
<path style=" stroke:none;fill-rule:nonzero;fill:rgb(19.999695%,40.388489%,56.858826%);fill-opacity:1;" d="M 332.828125 236.867188 C 292.960938 245.113281 290.210938 231.59375 290.210938 231.59375 C 332.304688 169.023438 349.90625 89.621094 334.71875 70.195312 C 293.296875 17.175781 221.574219 42.246094 220.382812 42.898438 L 219.992188 42.96875 C 212.125 41.328125 203.300781 40.355469 193.394531 40.191406 C 175.351562 39.894531 161.675781 44.929688 151.289062 52.816406 C 151.289062 52.816406 23.355469 0.03125 29.308594 119.203125 C 30.574219 144.554688 65.589844 311.023438 107.355469 260.742188 C 122.617188 242.363281 137.367188 226.8125 137.367188 226.8125 C 144.695312 231.6875 153.460938 234.171875 162.65625 233.285156 L 163.367188 232.667969 C 163.152344 234.949219 163.246094 237.191406 163.660156 239.835938 C 152.898438 251.867188 156.0625 253.988281 134.550781 258.417969 C 112.789062 262.917969 125.574219 270.90625 133.921875 273 C 144.042969 275.539062 167.457031 279.125 183.273438 256.941406 L 182.644531 259.480469 C 186.855469 262.863281 189.816406 281.472656 189.320312 298.351562 C 188.824219 315.226562 188.488281 326.8125 191.8125 335.863281 C 195.136719 344.914062 198.449219 365.265625 226.722656 359.199219 C 250.34375 354.136719 262.597656 340.992188 264.296875 319.066406 C 265.503906 303.492188 268.238281 305.789062 268.414062 291.863281 L 270.597656 285.257812 C 273.132812 264.140625 271 257.320312 285.558594 260.488281 L 289.097656 260.808594 C 299.808594 261.292969 313.832031 259.078125 322.0625 255.25 C 339.785156 247.007812 350.296875 233.257812 332.816406 236.871094 L 332.828125 236.871094 "/>
<path style=" stroke:none;fill-rule:nonzero;fill:rgb(100%,100%,100%);fill-opacity:1;" d="M 158.78125 130.539062 C 155.1875 130.039062 151.933594 130.5 150.28125 131.75 C 149.359375 132.453125 149.078125 133.265625 148.996094 133.824219 C 148.792969 135.308594 149.828125 136.949219 150.457031 137.796875 C 152.265625 140.191406 154.90625 141.835938 157.507812 142.199219 C 157.898438 142.25 158.273438 142.277344 158.632812 142.277344 C 162.992188 142.277344 166.945312 138.882812 167.292969 136.378906 C 167.738281 133.242188 163.179688 131.152344 158.78125 130.539062 "/>
<path style=" stroke:none;fill-rule:nonzero;fill:rgb(100%,100%,100%);fill-opacity:1;" d="M 277.796875 130.636719 C 277.449219 128.179688 273.09375 127.480469 268.9375 128.054688 C 264.808594 128.632812 260.785156 130.503906 261.121094 132.96875 C 261.390625 134.882812 264.847656 138.15625 268.9375 138.15625 C 269.285156 138.15625 269.632812 138.132812 269.984375 138.082031 C 272.703125 137.703125 274.714844 135.96875 275.667969 134.96875 C 277.113281 133.441406 277.945312 131.742188 277.796875 130.636719 "/>
<path style=" stroke:none;fill-rule:nonzero;fill:rgb(100%,100%,100%);fill-opacity:1;" d="M 346.085938 235.941406 C 344.570312 231.335938 339.679688 229.847656 331.542969 231.539062 C 307.410156 236.519531 298.765625 233.070312 295.921875 230.976562 C 314.691406 202.351562 330.121094 167.75 338.445312 135.460938 C 342.402344 120.167969 344.570312 105.964844 344.746094 94.390625 C 344.949219 81.683594 342.789062 72.347656 338.324219 66.644531 C 320.363281 43.652344 293.992188 31.316406 262.074219 30.980469 C 240.128906 30.730469 221.589844 36.355469 217.996094 37.9375 C 210.433594 36.054688 202.175781 34.894531 193.195312 34.746094 C 176.71875 34.480469 162.480469 38.429688 150.699219 46.480469 C 145.570312 44.574219 132.335938 40.023438 116.152344 37.410156 C 88.171875 32.898438 65.9375 36.320312 50.070312 47.578125 C 31.136719 61.011719 22.398438 85.027344 24.089844 118.949219 C 24.660156 130.367188 31.152344 165.480469 41.402344 199.101562 C 54.890625 243.367188 69.550781 268.421875 84.980469 273.578125 C 86.785156 274.179688 88.871094 274.597656 91.164062 274.597656 C 96.792969 274.597656 103.691406 272.058594 110.871094 263.414062 C 122.796875 249.046875 133.929688 237.003906 138.03125 232.625 C 144.097656 235.890625 150.765625 237.714844 157.574219 237.890625 C 157.589844 238.078125 157.601562 238.253906 157.617188 238.425781 C 156.25 240.050781 155.136719 241.472656 154.171875 242.695312 C 149.453125 248.699219 148.472656 249.945312 133.273438 253.074219 C 128.949219 253.972656 117.46875 256.335938 117.300781 264.40625 C 117.117188 273.214844 130.871094 276.90625 132.441406 277.296875 C 137.902344 278.664062 143.164062 279.351562 148.179688 279.351562 C 160.390625 279.351562 171.128906 275.335938 179.707031 267.5625 C 179.441406 298.953125 180.753906 329.902344 184.507812 339.324219 C 187.589844 347.046875 195.125 365.898438 218.921875 365.898438 C 222.40625 365.898438 226.253906 365.496094 230.476562 364.582031 C 255.304688 359.25 266.082031 348.269531 270.265625 324.035156 C 272.488281 311.089844 276.324219 280.15625 278.121094 263.574219 C 281.925781 264.753906 286.820312 265.304688 292.117188 265.304688 C 303.148438 265.304688 315.882812 262.957031 323.859375 259.238281 C 332.84375 255.074219 349.023438 244.832031 346.085938 235.941406 Z M 286.96875 123.851562 C 286.875 128.75 286.203125 133.195312 285.492188 137.835938 C 284.730469 142.824219 283.9375 147.984375 283.738281 154.25 C 283.535156 160.339844 284.300781 166.675781 285.039062 172.8125 C 286.511719 185.191406 288.039062 197.933594 282.140625 210.511719 C 281.214844 208.875 280.332031 207.101562 279.527344 205.128906 C 278.789062 203.34375 277.195312 200.484375 274.996094 196.523438 C 266.417969 181.121094 246.335938 145.039062 256.617188 130.3125 C 259.671875 125.933594 267.449219 121.425781 286.96875 123.851562 Z M 263.304688 40.894531 C 291.914062 41.527344 314.53125 52.242188 330.550781 72.742188 C 342.828125 88.464844 329.304688 160.015625 290.144531 221.734375 C 289.757812 221.238281 289.367188 220.742188 288.953125 220.230469 C 288.789062 220.03125 288.628906 219.816406 288.457031 219.613281 C 298.578125 202.871094 296.605469 186.316406 294.835938 171.628906 C 294.113281 165.597656 293.429688 159.90625 293.605469 154.5625 C 293.792969 148.894531 294.542969 144.039062 295.253906 139.339844 C 296.152344 133.546875 297.046875 127.554688 296.808594 120.492188 C 296.996094 119.75 297.0625 118.875 296.96875 117.835938 C 296.324219 111.0625 288.601562 90.789062 272.863281 72.441406 C 264.257812 62.40625 251.710938 51.171875 234.566406 43.597656 C 241.9375 42.066406 252.019531 40.640625 263.304688 40.890625 Z M 103.269531 257.085938 C 95.359375 266.605469 89.898438 264.78125 88.101562 264.1875 C 76.398438 260.269531 62.820312 235.496094 50.847656 196.210938 C 40.484375 162.214844 34.433594 128.039062 33.953125 118.453125 C 32.441406 88.140625 39.777344 67.011719 55.761719 55.660156 C 81.773438 37.183594 124.539062 48.242188 141.722656 53.851562 C 141.476562 54.09375 141.21875 54.324219 140.976562 54.570312 C 112.777344 83.09375 113.445312 131.828125 113.515625 134.808594 C 113.511719 135.957031 113.609375 137.582031 113.738281 139.820312 C 114.226562 148.019531 115.128906 163.277344 112.714844 180.554688 C 110.472656 196.601562 115.414062 212.324219 126.269531 223.65625 C 127.394531 224.835938 128.566406 225.9375 129.777344 226.972656 C 124.949219 232.152344 114.445312 243.621094 103.269531 257.085938 Z M 133.402344 216.808594 C 124.65625 207.675781 120.679688 194.949219 122.5 181.925781 C 125.046875 163.664062 124.109375 147.773438 123.601562 139.234375 C 123.53125 138.042969 123.46875 136.992188 123.433594 136.167969 C 127.550781 132.507812 146.644531 122.265625 160.25 125.390625 C 166.472656 126.8125 170.253906 131.050781 171.832031 138.339844 C 179.972656 176.070312 172.90625 191.792969 167.234375 204.441406 C 166.054688 207.03125 164.957031 209.503906 164.003906 212.039062 L 163.28125 214.015625 C 161.417969 218.996094 159.703125 223.613281 158.628906 228.003906 C 149.324219 227.976562 140.285156 224.003906 133.402344 216.808594 Z M 134.832031 267.707031 C 132.117188 267.023438 129.671875 265.839844 128.238281 264.859375 C 129.4375 264.296875 131.566406 263.53125 135.261719 262.765625 C 153.144531 259.085938 155.90625 256.480469 161.925781 248.816406 C 163.320312 247.058594 164.875 245.054688 167.046875 242.640625 L 167.046875 242.625 C 170.292969 239 171.765625 239.617188 174.449219 240.734375 C 176.621094 241.632812 178.738281 244.359375 179.597656 247.367188 C 179.996094 248.777344 180.453125 251.472656 178.964844 253.570312 C 166.363281 271.222656 148.011719 271.011719 134.832031 267.707031 Z M 228.40625 354.910156 C 206.527344 359.597656 198.78125 348.425781 193.683594 335.644531 C 190.386719 327.402344 188.765625 290.195312 189.917969 249.109375 C 189.929688 248.574219 189.851562 248.039062 189.703125 247.539062 C 189.570312 246.585938 189.367188 245.621094 189.085938 244.640625 C 187.382812 238.664062 183.230469 233.671875 178.226562 231.589844 C 176.246094 230.769531 172.597656 229.253906 168.226562 230.382812 C 169.167969 226.527344 170.773438 222.179688 172.53125 217.480469 L 173.269531 215.492188 C 174.097656 213.261719 175.132812 210.941406 176.246094 208.496094 C 182.183594 195.269531 190.320312 177.160156 181.484375 136.25 C 178.175781 120.925781 167.128906 113.441406 150.382812 115.179688 C 140.335938 116.21875 131.152344 120.277344 126.570312 122.601562 C 125.585938 123.101562 124.683594 123.585938 123.839844 124.054688 C 125.121094 108.617188 129.953125 79.761719 148.023438 61.503906 C 159.40625 50.007812 174.554688 44.332031 193.027344 44.640625 C 229.410156 45.234375 252.738281 63.933594 265.902344 79.519531 C 277.257812 92.945312 283.394531 106.472656 285.851562 113.769531 C 267.417969 111.890625 254.867188 115.539062 248.515625 124.640625 C 234.679688 144.441406 256.074219 182.878906 266.359375 201.339844 C 268.246094 204.722656 269.871094 207.652344 270.394531 208.898438 C 273.730469 217.023438 278.074219 222.445312 281.238281 226.421875 C 282.203125 227.628906 283.15625 228.808594 283.867188 229.832031 C 278.277344 231.441406 268.246094 235.175781 269.160156 253.796875 C 268.421875 263.140625 263.179688 306.886719 260.511719 322.351562 C 257 342.773438 249.492188 350.375 228.40625 354.910156 Z M 319.699219 250.265625 C 313.988281 252.925781 304.429688 254.910156 295.355469 255.339844 C 285.328125 255.8125 280.21875 254.214844 279.027344 253.234375 C 278.464844 241.632812 282.765625 240.410156 287.335938 239.136719 C 288.046875 238.933594 288.757812 238.734375 289.429688 238.503906 C 289.84375 238.839844 290.3125 239.175781 290.808594 239.511719 C 298.867188 244.839844 313.25 245.417969 333.535156 241.214844 C 333.613281 241.203125 333.695312 241.191406 333.761719 241.175781 C 331.027344 243.742188 326.347656 247.179688 319.699219 250.265625 Z M 319.699219 250.265625 "/>
</g>
</svg>
