<?xml version="1.0" encoding="UTF-8"?>
<svg xmlns="http://www.w3.org/2000/svg" xmlns:xlink="http://www.w3.org/1999/xlink" width="375pt" height="374.999991pt" viewBox="0 0 375 374.999991" version="1.2">
<defs>
<clipPath id="clip1">
  <path d="M 2.140625 24 L 372.429688 24 L 372.429688 350 L 2.140625 350 Z M 2.140625 24 "/>
</clipPath>
</defs>
<g id="surface1">
<path style=" stroke:none;fill-rule:nonzero;fill:rgb(32.548523%,75.689697%,87.059021%);fill-opacity:1;" d="M 220.410156 186.792969 C 220.410156 187.878906 220.355469 188.960938 220.25 190.042969 C 220.144531 191.125 219.984375 192.199219 219.773438 193.265625 C 219.5625 194.332031 219.296875 195.382812 218.984375 196.421875 C 218.667969 197.464844 218.304688 198.484375 217.886719 199.488281 C 217.472656 200.492188 217.011719 201.472656 216.5 202.433594 C 215.988281 203.390625 215.429688 204.320312 214.828125 205.226562 C 214.222656 206.128906 213.578125 207 212.890625 207.839844 C 212.203125 208.679688 211.476562 209.484375 210.707031 210.253906 C 209.941406 211.019531 209.136719 211.75 208.300781 212.441406 C 207.460938 213.128906 206.589844 213.777344 205.6875 214.378906 C 204.785156 214.984375 203.855469 215.539062 202.898438 216.054688 C 201.941406 216.566406 200.964844 217.03125 199.960938 217.445312 C 198.957031 217.859375 197.9375 218.226562 196.898438 218.542969 C 195.863281 218.859375 194.8125 219.121094 193.746094 219.332031 C 192.683594 219.546875 191.609375 219.703125 190.53125 219.8125 C 189.453125 219.917969 188.371094 219.972656 187.285156 219.972656 C 186.199219 219.972656 185.117188 219.917969 184.039062 219.8125 C 182.957031 219.703125 181.886719 219.546875 180.820312 219.332031 C 179.757812 219.121094 178.707031 218.859375 177.667969 218.542969 C 176.628906 218.226562 175.609375 217.859375 174.609375 217.445312 C 173.605469 217.03125 172.625 216.566406 171.667969 216.054688 C 170.710938 215.539062 169.78125 214.984375 168.882812 214.378906 C 167.980469 213.777344 167.109375 213.128906 166.269531 212.441406 C 165.429688 211.75 164.628906 211.019531 163.859375 210.253906 C 163.09375 209.484375 162.367188 208.679688 161.679688 207.839844 C 160.988281 207 160.34375 206.128906 159.742188 205.226562 C 159.140625 204.320312 158.582031 203.390625 158.070312 202.433594 C 157.558594 201.472656 157.097656 200.492188 156.679688 199.488281 C 156.265625 198.484375 155.898438 197.464844 155.585938 196.421875 C 155.269531 195.382812 155.007812 194.332031 154.796875 193.265625 C 154.582031 192.199219 154.425781 191.125 154.320312 190.042969 C 154.210938 188.960938 154.160156 187.878906 154.160156 186.792969 C 154.160156 185.703125 154.210938 184.621094 154.320312 183.539062 C 154.425781 182.457031 154.582031 181.382812 154.796875 180.320312 C 155.007812 179.253906 155.269531 178.199219 155.585938 177.160156 C 155.898438 176.121094 156.265625 175.097656 156.679688 174.09375 C 157.097656 173.089844 157.558594 172.109375 158.070312 171.152344 C 158.582031 170.191406 159.140625 169.261719 159.742188 168.359375 C 160.34375 167.453125 160.988281 166.582031 161.679688 165.742188 C 162.367188 164.902344 163.09375 164.097656 163.859375 163.332031 C 164.628906 162.5625 165.429688 161.832031 166.269531 161.144531 C 167.109375 160.453125 167.980469 159.808594 168.882812 159.203125 C 169.78125 158.601562 170.710938 158.042969 171.667969 157.53125 C 172.625 157.019531 173.605469 156.554688 174.609375 156.136719 C 175.609375 155.722656 176.628906 155.355469 177.667969 155.042969 C 178.707031 154.726562 179.757812 154.460938 180.820312 154.25 C 181.886719 154.039062 182.957031 153.878906 184.039062 153.773438 C 185.117188 153.664062 186.199219 153.613281 187.285156 153.613281 C 188.371094 153.613281 189.453125 153.664062 190.53125 153.773438 C 191.609375 153.878906 192.683594 154.039062 193.746094 154.25 C 194.8125 154.460938 195.863281 154.726562 196.898438 155.042969 C 197.9375 155.355469 198.957031 155.722656 199.960938 156.136719 C 200.964844 156.554688 201.941406 157.019531 202.898438 157.53125 C 203.855469 158.042969 204.785156 158.601562 205.6875 159.203125 C 206.589844 159.808594 207.460938 160.453125 208.300781 161.144531 C 209.136719 161.832031 209.941406 162.5625 210.707031 163.332031 C 211.476562 164.097656 212.203125 164.902344 212.890625 165.742188 C 213.578125 166.582031 214.222656 167.453125 214.828125 168.359375 C 215.429688 169.261719 215.988281 170.191406 216.5 171.152344 C 217.011719 172.109375 217.472656 173.089844 217.886719 174.09375 C 218.304688 175.097656 218.667969 176.121094 218.984375 177.160156 C 219.296875 178.199219 219.5625 179.253906 219.773438 180.320312 C 219.984375 181.382812 220.144531 182.457031 220.25 183.539062 C 220.355469 184.621094 220.410156 185.703125 220.410156 186.792969 Z M 220.410156 186.792969 "/>
<g clip-path="url(#clip1)" clip-rule="nonzero">
<path style=" stroke:none;fill-rule:nonzero;fill:rgb(32.548523%,75.689697%,87.059021%);fill-opacity:1;" d="M 71.785156 245.546875 C 75.039062 246.628906 78.296875 247.726562 81.628906 248.667969 C 80.546875 253.011719 79.609375 257.292969 78.726562 261.710938 C 71.136719 301.921875 77.0625 333.789062 96.007812 344.730469 C 115.539062 356.027344 148.375 344.433594 180.339844 316.402344 C 182.871094 314.160156 185.402344 311.84375 187.933594 309.371094 C 191.109375 312.492188 194.445312 315.460938 197.761719 318.347656 C 228.710938 345.007812 259.304688 355.792969 278.191406 344.867188 C 297.722656 333.570312 304.078125 299.308594 295.839844 257.585938 C 295.191406 254.402344 294.46875 251.140625 293.664062 247.804688 C 295.980469 247.152344 298.21875 246.425781 300.46875 245.703125 C 342.203125 231.871094 372.429688 209.476562 372.429688 186.511719 C 372.429688 164.570312 343.933594 143.273438 304.589844 129.722656 L 304.589844 129.707031 C 300.683594 128.40625 296.78125 127.171875 292.878906 126.011719 C 293.527344 123.339844 294.113281 120.648438 294.683594 117.976562 C 303.585938 74.796875 297.722656 40.121094 277.972656 28.667969 C 258.949219 17.726562 227.921875 29.101562 196.542969 56.484375 C 193.425781 59.160156 190.402344 61.988281 187.5 64.816406 C 185.542969 62.929688 183.519531 61.042969 181.5 59.238281 C 148.589844 29.96875 115.617188 17.652344 95.871094 29.179688 C 76.921875 40.199219 71.277344 72.867188 79.238281 113.695312 C 80.039062 117.761719 80.902344 121.730469 81.90625 125.796875 C 77.277344 127.09375 72.726562 128.546875 68.453125 130.078125 C 29.835938 143.476562 2.140625 164.632812 2.140625 186.511719 C 2.140625 209.121094 31.640625 231.777344 71.785156 245.546875 Z M 170.144531 304.566406 C 158.214844 315.507812 144.394531 324.191406 129.351562 330.140625 C 121.328125 333.972656 112.070312 334.34375 103.816406 331.082031 C 92.320312 324.421875 87.539062 298.847656 94.046875 264.429688 C 94.851562 260.382812 95.714844 256.316406 96.71875 252.332031 C 112.917969 255.808594 129.257812 258.203125 145.828125 259.425781 C 155.378906 272.976562 165.855469 285.941406 177.070312 298.105469 C 174.757812 300.347656 172.441406 302.523438 170.128906 304.550781 Z M 261.992188 168.539062 C 258.597656 162.160156 255.125 155.792969 251.5 149.5625 C 247.949219 143.414062 244.261719 137.324219 240.4375 131.3125 C 252.085938 132.765625 263.226562 134.710938 273.640625 137.109375 C 270.304688 147.832031 266.402344 158.265625 261.992188 168.539062 Z M 262.128906 204.609375 C 266.757812 215.117188 270.816406 225.765625 274.347656 236.707031 C 263.132812 239.242188 251.792969 241.203125 240.359375 242.503906 C 244.261719 236.414062 247.949219 230.1875 251.574219 223.957031 C 255.261719 217.574219 258.734375 211.132812 262.128906 204.609375 Z M 253.765625 186.589844 C 248.921875 196.589844 243.707031 206.433594 238.152344 216.136719 C 232.660156 225.765625 226.796875 235.117188 220.65625 244.386719 C 209.886719 245.191406 198.671875 245.546875 187.316406 245.546875 C 175.960938 245.546875 164.972656 245.191406 154.34375 244.527344 C 148.050781 235.332031 142.125 225.90625 136.554688 216.277344 C 130.984375 206.648438 125.847656 196.867188 121.003906 186.867188 L 120.972656 186.867188 C 125.738281 176.871094 130.953125 167.089844 136.445312 157.460938 C 141.941406 147.832031 147.878906 138.484375 154.097656 129.289062 C 164.945312 128.484375 176.007812 128.050781 187.300781 128.050781 C 198.59375 128.050781 209.71875 128.484375 220.503906 129.289062 C 226.644531 138.421875 232.507812 147.753906 238.074219 157.320312 C 243.644531 166.886719 248.84375 176.667969 253.765625 186.589844 Z M 122.976562 149.703125 C 119.429688 155.851562 115.957031 162.144531 112.703125 168.523438 C 108.152344 157.738281 104.308594 147.167969 101.128906 136.953125 C 111.546875 134.636719 122.605469 132.75 134.101562 131.296875 C 130.289062 137.308594 126.527344 143.460938 122.976562 149.703125 Z M 112.71875 205.183594 C 116.050781 211.5625 119.445312 217.871094 123.054688 224.097656 C 126.742188 230.402344 130.507812 236.707031 134.488281 242.859375 C 123.210938 241.621094 111.992188 239.8125 100.929688 237.417969 C 104.109375 226.988281 108.089844 216.199219 112.71875 205.183594 Z M 187.871094 286.949219 C 180.496094 278.988281 173.121094 270.164062 165.960938 260.660156 C 172.90625 260.953125 180.0625 261.09375 187.300781 261.09375 C 194.753906 261.09375 202.050781 260.953125 209.285156 260.582031 C 202.636719 269.777344 195.476562 278.554688 187.871094 286.949219 Z M 282.402344 308.707031 C 281.738281 317.53125 277.402344 325.78125 270.460938 331.363281 C 258.964844 338.023438 234.449219 329.335938 207.972656 306.589844 C 204.933594 303.976562 201.894531 301.148438 198.792969 298.257812 C 209.855469 286.019531 220.054688 273.054688 229.3125 259.441406 C 245.867188 258.0625 262.359375 255.53125 278.636719 251.835938 C 279.363281 254.804688 280.011719 257.769531 280.597656 260.675781 C 284.144531 276.332031 284.71875 292.617188 282.402344 308.707031 Z M 288.683594 140.941406 C 292.445312 142.023438 296.058594 143.179688 299.527344 144.339844 C 333.226562 155.929688 356.875 173.175781 356.875 186.359375 C 356.875 200.5625 331.636719 218.890625 295.546875 230.835938 C 293.527344 231.484375 291.503906 232.132812 289.40625 232.71875 C 284.347656 216.925781 278.128906 201.503906 270.96875 186.5 C 277.914062 171.722656 283.777344 156.503906 288.683594 140.941406 Z M 206.726562 68.214844 C 233.648438 44.757812 258.734375 35.5625 270.167969 42.144531 C 282.386719 49.175781 287.09375 77.566406 279.425781 114.871094 C 278.914062 117.328125 278.40625 119.722656 277.757812 122.117188 C 261.695312 118.5 245.433594 115.890625 229.082031 114.4375 C 219.683594 100.945312 209.410156 88.058594 198.269531 75.957031 C 201.09375 73.285156 203.839844 70.75 206.726562 68.214844 Z M 187.4375 87.054688 C 195.03125 95.304688 202.1875 103.992188 208.839844 112.96875 C 194.519531 112.320312 180.125 112.320312 165.808594 112.96875 C 172.890625 103.636719 180.203125 94.949219 187.4375 87.054688 Z M 103.539062 42.65625 C 115.695312 35.5625 142.664062 45.699219 171.085938 70.902344 C 172.890625 72.496094 174.695312 74.242188 176.578125 75.972656 C 165.359375 88.058594 155.023438 100.945312 145.550781 114.421875 C 129.210938 115.875 113.011719 118.410156 96.949219 121.964844 C 96.007812 118.269531 95.222656 114.5 94.417969 110.726562 C 87.613281 75.664062 92.105469 49.238281 103.539062 42.65625 Z M 73.527344 144.773438 C 77.648438 143.320312 81.84375 142.023438 86.042969 140.785156 C 90.964844 156.503906 96.886719 171.941406 103.753906 186.851562 C 96.808594 202 90.808594 217.636719 85.824219 233.570312 L 85.808594 233.585938 C 82.769531 232.71875 79.808594 231.777344 76.847656 230.757812 C 61.449219 225.90625 43.9375 218.226562 31.285156 208.164062 C 23.988281 203.09375 19.066406 195.277344 17.691406 186.5 C 17.691406 173.238281 40.542969 156.285156 73.527344 144.773438 Z M 73.527344 144.773438 "/>
</g>
</g>
</svg>
