<?xml version="1.0" encoding="UTF-8"?>
<svg xmlns="http://www.w3.org/2000/svg" xmlns:xlink="http://www.w3.org/1999/xlink" width="375pt" height="374.999991pt" viewBox="0 0 375 374.999991" version="1.2">
<g id="surface1">
<path style=" stroke:none;fill-rule:nonzero;fill:rgb(8.628845%,46.669006%,78.039551%);fill-opacity:1;" d="M 0 187.5 L 0 375 L 375 375 L 375 0 L 0 0 Z M 227.546875 306.65625 C 229.234375 305.703125 235.53125 302.0625 241.484375 298.609375 L 252.265625 292.359375 L 254.53125 295.703125 C 257.6875 300.515625 264.578125 307.125 268.75 309.328125 C 280.71875 315.640625 297.140625 314.75 305.234375 307.484375 C 308.25 304.9375 310.140625 301.15625 310.140625 296.9375 C 310.140625 296.6875 310.140625 296.453125 310.125 296.203125 L 310.125 296.234375 C 310.125 291.890625 309.578125 289.984375 307.3125 286.703125 C 304.40625 282.546875 298.453125 279.046875 281.546875 271.703125 C 262.203125 263.375 253.875 258.203125 246.25 249.984375 C 241.65625 244.765625 238.109375 238.484375 236.046875 231.578125 L 235.953125 231.234375 C 234.53125 225.9375 234.171875 212.65625 235.296875 207.3125 C 239.28125 188.609375 253.390625 175.59375 273.75 171.71875 C 280.359375 170.46875 295.71875 170.9375 302.203125 172.546875 L 302.203125 172.5625 C 311.734375 174.9375 318.984375 179.171875 325.65625 186.078125 C 329.109375 189.765625 334.234375 196.484375 334.640625 198.109375 C 334.765625 198.578125 318.453125 209.515625 308.578125 215.65625 C 308.21875 215.890625 306.78125 214.34375 305.1875 211.96875 C 300.34375 204.9375 295.296875 201.90625 287.5625 201.375 C 276.1875 200.59375 268.875 206.546875 268.9375 216.484375 C 268.9375 216.65625 268.921875 216.859375 268.921875 217.0625 C 268.921875 219.421875 269.515625 221.640625 270.5625 223.578125 L 270.53125 223.5 C 273.03125 228.671875 277.6875 231.78125 292.25 238.078125 C 319.109375 249.640625 330.59375 257.25 337.734375 268.078125 C 345.703125 280.15625 347.5 299.453125 342.078125 313.796875 C 336.140625 329.390625 321.375 339.984375 300.59375 343.484375 C 294.171875 344.625 278.9375 344.453125 272.03125 343.203125 C 256.96875 340.515625 242.6875 333.078125 233.875 323.3125 C 230.421875 319.515625 223.6875 309.5625 224.109375 308.859375 C 224.28125 308.609375 225.828125 307.65625 227.546875 306.65625 Z M 82.15625 188.515625 C 82.15625 180.171875 82.328125 173.203125 82.5625 173.046875 C 82.75 172.796875 112.453125 172.671875 148.453125 172.734375 L 214 172.921875 L 214.171875 188.21875 L 214.296875 203.578125 L 165.46875 203.578125 L 165.46875 342.265625 L 130.9375 342.265625 L 130.9375 203.578125 L 82.15625 203.578125 Z M 82.15625 188.515625 "/>
</g>
</svg>
